<?xml version="1.0" encoding="utf-8"?>
<!-- Generator: Adobe Illustrator 24.0.2, SVG Export Plug-In . SVG Version: 6.00 Build 0)  -->
<svg version="1.1" id="Camada_1" xmlns="http://www.w3.org/2000/svg" xmlns:xlink="http://www.w3.org/1999/xlink" x="0px" y="0px"
	 viewBox="0 0 291 166" style="enable-background:new 0 0 291 166;" xml:space="preserve">
<style type="text/css">
	.st0{fill:#EAEAEA;}
	.st1{fill:#FFBD00;}
	.st2{fill:#D9D9D9;}
	.st3{clip-path:url(#SVGID_2_);}
	.st4{fill:#11286B;}
	.st5{fill:none;stroke:#FFBD00;stroke-width:2;stroke-linecap:round;stroke-linejoin:round;}
</style>
<path class="st0" d="M26,24C26,10.7,36.7,0,50,0h156c13.3,0,24,10.7,24,24v142H26V24z"/>
<path class="st1" d="M66,94h97c2.2,0,4,1.8,4,4l0,0c0,2.2-1.8,4-4,4H66c-2.2,0-4-1.8-4-4l0,0C62,95.8,63.8,94,66,94z"/>
<path class="st2" d="M64,62h49c1.1,0,2,0.9,2,2l0,0c0,1.1-0.9,2-2,2H64c-1.1,0-2-0.9-2-2l0,0C62,62.9,62.9,62,64,62z"/>
<path class="st2" d="M64,75h49c1.1,0,2,0.9,2,2l0,0c0,1.1-0.9,2-2,2H64c-1.1,0-2-0.9-2-2l0,0C62,75.9,62.9,75,64,75z"/>
<path class="st2" d="M64,49h49c1.1,0,2,0.9,2,2l0,0c0,1.1-0.9,2-2,2H64c-1.1,0-2-0.9-2-2l0,0C62,49.9,62.9,49,64,49z"/>
<g>
	<g>
		<defs>
			<rect id="SVGID_1_" x="63" y="121" width="130" height="25"/>
		</defs>
		<clipPath id="SVGID_2_">
			<use xlink:href="#SVGID_1_"  style="overflow:visible;"/>
		</clipPath>
		<g class="st3">
			<path d="M193,121h-5.1v25h5.1V121z"/>
			<path d="M178.8,121h-7.6v25h7.6V121z"/>
			<path d="M159.6,121h-5.1v25h5.1V121z"/>
			<path d="M184.6,121h-2.5v25h2.5V121z"/>
			<path d="M168.7,121h-2.5v25h2.5V121z"/>
			<path d="M164.2,121h-2.5v25h2.5V121z"/>
			<path d="M87.2,121h-7.6v25h7.6V121z"/>
			<path d="M68.1,146v-25H63v25H68.1L68.1,146z"/>
			<path d="M77.2,121h-2.5v25h2.5V121z"/>
			<path d="M72.7,121h-2.5v25h2.5V121z"/>
			<path d="M153.4,121h-2.5v25h2.5C153.4,137.6,153.4,129.3,153.4,121z"/>
			<path d="M148.9,121h-1.2v25h1.2C148.9,137.7,148.9,129.4,148.9,121z"/>
			<path d="M139.2,121h-7.6v25h7.6V121z"/>
			<path d="M120,121h-5v25h5.1L120,121L120,121z"/>
			<path d="M145.1,121h-2.5v25h2.5V121z"/>
			<path d="M129.1,121h-2.5v25h2.5V121z"/>
			<path d="M124.7,121h-2.5v25h2.5V121z"/>
			<path d="M113.8,121h-2.5v25h2.5C113.8,137.6,113.8,129.3,113.8,121z"/>
			<path d="M109.3,121h-1.2v25h1.2V121z"/>
			<path d="M101.9,121h-5.1c0,8.3,0,16.6,0,25h5.1V121z"/>
			<path d="M106.6,121h-2.5v25h2.5V121z"/>
			<path d="M95.7,121h-2.5v25h2.5V121z"/>
			<path d="M91.2,121H90c0,8.3,0,16.6,0,25h1.2V121z"/>
		</g>
	</g>
</g>
<path class="st4" d="M12,96h16c6.6,0,12,5.4,12,12v16c0,6.6-5.4,12-12,12H12c-6.6,0-12-5.4-12-12v-16C0,101.4,5.4,96,12,96z"/>
<path class="st5" d="M11,111v-2c0-0.5,0.2-1,0.6-1.4s0.9-0.6,1.4-0.6h2"/>
<path class="st5" d="M25,107h2c0.5,0,1,0.2,1.4,0.6s0.6,0.9,0.6,1.4v2"/>
<path class="st5" d="M29,121v2c0,0.5-0.2,1-0.6,1.4S27.5,125,27,125h-2"/>
<path class="st5" d="M15,125h-2c-0.5,0-1-0.2-1.4-0.6S11,123.5,11,123v-2"/>
<path class="st5" d="M16,111v10"/>
<path class="st5" d="M20,111v10"/>
<path class="st5" d="M25,111v10"/>
<path class="st4" d="M148,43h131c6.6,0,12,5.4,12,12v5c0,6.6-5.4,12-12,12H148c-6.6,0-12-5.4-12-12v-5C136,48.4,141.4,43,148,43z"/>
<path class="st1" d="M148.2,61v-1h1.5v-4.9c-0.1,0.2-0.2,0.3-0.4,0.4c-0.2,0.1-0.3,0.2-0.5,0.3s-0.4,0.1-0.6,0.1v-1.1
	c0.2,0,0.5-0.1,0.7-0.2c0.2-0.1,0.4-0.2,0.6-0.4c0.2-0.2,0.3-0.4,0.3-0.6h1.1V60h1.4v1H148.2z M153.1,61v-0.8
	c0.2-0.2,0.4-0.4,0.6-0.5c0.2-0.2,0.3-0.3,0.5-0.4c0.2-0.1,0.3-0.3,0.5-0.4c0.2-0.1,0.3-0.3,0.5-0.5s0.4-0.4,0.6-0.6
	c0.2-0.2,0.3-0.4,0.4-0.6c0.1-0.2,0.2-0.4,0.3-0.6c0.1-0.2,0.1-0.4,0.1-0.6c0-0.4-0.1-0.7-0.3-1c-0.2-0.2-0.5-0.4-0.9-0.4
	c-0.3,0-0.5,0.1-0.7,0.2c-0.2,0.1-0.3,0.3-0.4,0.6c-0.1,0.2-0.2,0.5-0.2,0.8l-1-0.2c0-0.5,0.1-0.9,0.3-1.2c0.2-0.4,0.5-0.6,0.8-0.8
	c0.4-0.2,0.7-0.3,1.2-0.3s0.9,0.1,1.2,0.3s0.6,0.4,0.8,0.8c0.2,0.3,0.3,0.7,0.3,1.2c0,0.3-0.1,0.7-0.2,1c-0.1,0.3-0.3,0.6-0.5,0.9
	c-0.2,0.3-0.4,0.6-0.7,0.8c-0.3,0.3-0.5,0.5-0.8,0.8s-0.6,0.5-0.8,0.7h3.2v1h-4.8V61z M161.3,61.1c-0.4,0-0.9-0.1-1.2-0.3
	c-0.4-0.2-0.6-0.4-0.9-0.7s-0.4-0.7-0.4-1.1l1-0.2c0,0.3,0.1,0.5,0.2,0.7c0.1,0.2,0.3,0.3,0.5,0.5c0.2,0.1,0.4,0.1,0.7,0.1
	s0.5,0,0.7-0.1s0.3-0.2,0.4-0.4c0.1-0.2,0.1-0.4,0.1-0.6c0-0.4-0.1-0.8-0.4-1c-0.3-0.2-0.7-0.3-1.4-0.3h-0.3v-0.9h0.3
	c0.5,0,0.9-0.1,1.2-0.3s0.4-0.4,0.4-0.8c0-0.3-0.1-0.6-0.3-0.8s-0.5-0.3-0.9-0.3c-0.2,0-0.4,0-0.6,0.1c-0.2,0.1-0.3,0.2-0.5,0.4
	c-0.1,0.2-0.2,0.4-0.2,0.7l-1-0.2c0.1-0.6,0.3-1.1,0.7-1.5s1-0.5,1.7-0.5c0.5,0,0.9,0.1,1.2,0.2c0.3,0.2,0.6,0.4,0.8,0.7
	s0.3,0.6,0.3,1s-0.1,0.8-0.3,1.1s-0.5,0.5-0.8,0.6c0.4,0.1,0.7,0.3,0.9,0.7s0.3,0.7,0.3,1.2c0,0.4-0.1,0.7-0.3,1s-0.5,0.6-0.8,0.8
	C162.2,61,161.8,61.1,161.3,61.1z M168.4,61v-1.6h-3.6v-0.9l3.4-4.8h1.4v4.7h0.9v1h-0.9V61H168.4z M166,58.4h2.4v-3.5L166,58.4z
	 M173.6,61.1c-0.5,0-0.9-0.1-1.3-0.3c-0.4-0.2-0.6-0.4-0.8-0.7s-0.3-0.6-0.4-1l1-0.2c0,0.2,0.1,0.4,0.2,0.6c0.1,0.2,0.3,0.3,0.5,0.5
	c0.2,0.1,0.5,0.2,0.8,0.2s0.5-0.1,0.7-0.2c0.2-0.1,0.4-0.3,0.5-0.6c0.1-0.2,0.2-0.5,0.2-0.8s-0.1-0.5-0.2-0.8
	c-0.1-0.2-0.3-0.4-0.5-0.6c-0.2-0.1-0.5-0.2-0.7-0.2c-0.3,0-0.6,0.1-0.8,0.3s-0.4,0.4-0.5,0.7l-1.1-0.3v-4h4.4v1h-3.3V57
	c0.1-0.1,0.2-0.2,0.3-0.4c0.1-0.1,0.3-0.3,0.6-0.4c0.2-0.1,0.5-0.2,0.8-0.2c0.4,0,0.7,0.1,1,0.3s0.6,0.5,0.8,0.8
	c0.2,0.4,0.3,0.8,0.3,1.3s-0.1,0.9-0.3,1.3c-0.2,0.4-0.5,0.7-0.9,0.9C174.5,61,174.1,61.1,173.6,61.1z M182.6,61.1
	c-0.6,0-1.1-0.2-1.5-0.5s-0.7-0.7-0.9-1.2s-0.3-1.1-0.3-1.8c0-0.6,0.1-1.1,0.2-1.6c0.1-0.5,0.3-0.9,0.5-1.3c0.2-0.4,0.5-0.7,0.8-0.9
	s0.7-0.3,1.1-0.3c0.4,0,0.8,0.1,1.1,0.3s0.6,0.4,0.8,0.7s0.3,0.5,0.4,0.8l-1,0.3c-0.1-0.3-0.2-0.6-0.4-0.8s-0.5-0.3-0.8-0.3
	c-0.2,0-0.5,0.1-0.7,0.2c-0.2,0.1-0.4,0.3-0.5,0.5s-0.3,0.5-0.3,0.9c-0.1,0.4-0.1,0.8-0.1,1.4c0.1-0.2,0.2-0.5,0.4-0.7
	s0.4-0.3,0.7-0.5c0.3-0.1,0.5-0.2,0.8-0.2c0.4,0,0.8,0.1,1.2,0.3c0.3,0.2,0.6,0.5,0.8,0.8c0.2,0.4,0.3,0.8,0.3,1.3s-0.1,0.9-0.3,1.2
	c-0.2,0.4-0.5,0.7-0.8,0.9S183.1,61.1,182.6,61.1z M182.6,60.1c0.3,0,0.5-0.1,0.7-0.2s0.4-0.3,0.5-0.5s0.2-0.5,0.2-0.7
	c0-0.3-0.1-0.5-0.2-0.8c-0.1-0.2-0.3-0.4-0.5-0.5s-0.5-0.2-0.8-0.2c-0.2,0-0.5,0.1-0.7,0.2c-0.2,0.1-0.4,0.3-0.6,0.5
	c-0.1,0.2-0.2,0.5-0.2,0.8s0.1,0.5,0.2,0.8c0.1,0.2,0.3,0.4,0.5,0.5C182.1,60.1,182.4,60.1,182.6,60.1z M189.6,61l2.8-6.3h-3.7v-1
	h4.8v0.8l-2.8,6.5H189.6z M197,61.1c-0.5,0-1-0.1-1.4-0.3s-0.7-0.4-0.9-0.8c-0.2-0.3-0.3-0.7-0.3-1.1c0-0.4,0.1-0.8,0.3-1.1
	s0.5-0.5,0.9-0.7c-0.3-0.2-0.6-0.4-0.8-0.6c-0.2-0.3-0.3-0.6-0.3-1s0.1-0.8,0.3-1c0.2-0.3,0.5-0.5,0.9-0.6c0.4-0.2,0.8-0.2,1.2-0.2
	s0.8,0.1,1.2,0.2c0.4,0.1,0.7,0.3,0.9,0.6s0.3,0.6,0.3,1.1c0,0.4-0.1,0.7-0.3,1s-0.4,0.5-0.8,0.6c0.4,0.1,0.7,0.4,0.9,0.7
	s0.3,0.7,0.3,1.1c0,0.4-0.1,0.8-0.3,1.1s-0.5,0.6-0.9,0.8C198,61,197.6,61.1,197,61.1z M197,60.1c0.5,0,0.8-0.1,1.1-0.3
	s0.4-0.5,0.4-0.9s-0.1-0.7-0.4-0.9c-0.3-0.2-0.6-0.3-1.1-0.3s-0.8,0.1-1.1,0.3s-0.4,0.5-0.4,0.9s0.1,0.7,0.4,0.9
	C196.2,60,196.6,60.1,197,60.1z M197,56.8c0.4,0,0.7-0.1,0.9-0.3s0.4-0.5,0.4-0.8c0-0.4-0.1-0.7-0.3-0.8c-0.2-0.2-0.5-0.3-1-0.3
	c-0.4,0-0.7,0.1-0.9,0.3s-0.4,0.5-0.4,0.8s0.1,0.6,0.4,0.8C196.4,56.7,196.7,56.8,197,56.8z M203.4,53.6c0.6,0,1.1,0.2,1.5,0.5
	s0.7,0.7,0.9,1.3c0.2,0.5,0.3,1.1,0.3,1.8s-0.1,1.4-0.3,2s-0.5,1.1-0.9,1.4c-0.4,0.3-0.9,0.5-1.4,0.5s-0.9-0.1-1.2-0.3
	s-0.6-0.4-0.8-0.7s-0.3-0.6-0.4-0.8l1-0.3c0.1,0.3,0.2,0.6,0.5,0.8c0.2,0.2,0.5,0.3,0.9,0.3c0.2,0,0.5-0.1,0.7-0.2s0.4-0.3,0.5-0.5
	c0.2-0.2,0.3-0.5,0.3-0.9c0.1-0.4,0.1-0.8,0.1-1.4c-0.1,0.3-0.2,0.5-0.4,0.7s-0.4,0.4-0.6,0.5c-0.2,0.1-0.5,0.2-0.7,0.2
	c-0.5,0-0.9-0.1-1.2-0.3s-0.6-0.5-0.8-0.8c-0.2-0.4-0.3-0.8-0.3-1.3s0.1-0.9,0.3-1.2c0.2-0.4,0.5-0.7,0.8-0.9
	C202.5,53.7,202.9,53.6,203.4,53.6z M203.4,54.5c-0.3,0-0.5,0.1-0.7,0.2c-0.2,0.1-0.4,0.3-0.5,0.5s-0.2,0.5-0.2,0.7s0.1,0.5,0.2,0.8
	c0.1,0.2,0.3,0.4,0.5,0.6c0.2,0.1,0.5,0.2,0.8,0.2c0.2,0,0.5-0.1,0.7-0.2c0.2-0.1,0.4-0.3,0.6-0.5c0.1-0.2,0.2-0.5,0.2-0.8
	c0-0.2,0-0.4-0.1-0.6c-0.1-0.2-0.2-0.3-0.3-0.5c-0.1-0.1-0.3-0.2-0.5-0.3C203.8,54.6,203.6,54.5,203.4,54.5z M206.9,61v-1h1.5v-4.9
	c-0.1,0.2-0.2,0.3-0.4,0.4c-0.2,0.1-0.3,0.2-0.5,0.3s-0.4,0.1-0.6,0.1v-1.1c0.2,0,0.5-0.1,0.7-0.2c0.2-0.1,0.4-0.2,0.6-0.4
	c0.2-0.2,0.3-0.4,0.3-0.6h1.1V60h1.4v1H206.9z M214.1,61.1c-0.6,0-1.1-0.2-1.5-0.5s-0.7-0.8-0.8-1.4c-0.2-0.6-0.3-1.2-0.3-1.9
	s0.1-1.3,0.3-1.9c0.2-0.6,0.5-1,0.8-1.3c0.4-0.3,0.9-0.5,1.5-0.5s1.1,0.2,1.5,0.5s0.7,0.8,0.8,1.3c0.2,0.6,0.3,1.2,0.3,1.9
	s-0.1,1.3-0.3,1.9c-0.2,0.6-0.5,1-0.8,1.4C215.2,60.9,214.7,61.1,214.1,61.1z M214.1,60c0.4,0,0.7-0.1,0.9-0.4
	c0.2-0.3,0.4-0.6,0.4-1c0.1-0.4,0.1-0.9,0.1-1.3c0-0.3,0-0.7-0.1-1c0-0.3-0.1-0.6-0.2-0.9c-0.1-0.3-0.3-0.5-0.5-0.6
	c-0.2-0.2-0.4-0.2-0.7-0.2s-0.5,0.1-0.7,0.2c-0.2,0.1-0.3,0.3-0.4,0.6c-0.1,0.3-0.2,0.5-0.2,0.9c0,0.3-0.1,0.6-0.1,1
	c0,0.5,0,0.9,0.1,1.3c0.1,0.4,0.2,0.8,0.5,1C213.4,59.9,213.7,60,214.1,60z M220.1,61v-1h1.5v-4.9c-0.1,0.2-0.2,0.3-0.4,0.4
	c-0.2,0.1-0.3,0.2-0.5,0.3s-0.4,0.1-0.5,0.1v-1.1c0.2,0,0.5-0.1,0.7-0.2c0.2-0.1,0.4-0.2,0.6-0.4c0.2-0.2,0.3-0.4,0.3-0.6h1.1V60
	h1.4v1H220.1z M224.8,61v-1h1.5v-4.9c-0.1,0.2-0.2,0.3-0.4,0.4c-0.2,0.1-0.3,0.2-0.5,0.3s-0.4,0.1-0.6,0.1v-1.1
	c0.2,0,0.5-0.1,0.7-0.2c0.2-0.1,0.4-0.2,0.6-0.4c0.2-0.2,0.3-0.4,0.3-0.6h1V60h1.4v1H224.8z M231.6,61v-1h1.5v-4.9
	c-0.1,0.2-0.2,0.3-0.4,0.4c-0.2,0.1-0.3,0.2-0.5,0.3s-0.4,0.1-0.6,0.1v-1.1c0.2,0,0.5-0.1,0.7-0.2c0.2-0.1,0.4-0.2,0.6-0.4
	c0.2-0.2,0.3-0.4,0.3-0.6h1.1V60h1.4v1H231.6z M236.6,61v-0.8c0.2-0.2,0.4-0.4,0.6-0.5c0.2-0.2,0.3-0.3,0.5-0.4
	c0.2-0.1,0.3-0.3,0.5-0.4c0.2-0.1,0.3-0.3,0.5-0.5s0.4-0.4,0.6-0.6c0.2-0.2,0.3-0.4,0.4-0.6c0.1-0.2,0.2-0.4,0.3-0.6
	c0.1-0.2,0.1-0.4,0.1-0.6c0-0.4-0.1-0.7-0.3-1c-0.2-0.2-0.5-0.4-0.9-0.4c-0.3,0-0.5,0.1-0.7,0.2c-0.2,0.1-0.3,0.3-0.4,0.6
	c-0.1,0.2-0.2,0.5-0.2,0.8l-1-0.2c0-0.5,0.1-0.9,0.3-1.2c0.2-0.4,0.5-0.6,0.8-0.8c0.4-0.2,0.7-0.3,1.2-0.3s0.9,0.1,1.2,0.3
	s0.6,0.4,0.8,0.8c0.2,0.3,0.3,0.7,0.3,1.2c0,0.3-0.1,0.7-0.2,1c-0.1,0.3-0.3,0.6-0.5,0.9c-0.2,0.3-0.4,0.6-0.7,0.8
	c-0.3,0.3-0.5,0.5-0.8,0.8s-0.6,0.5-0.8,0.7h3.2v1h-4.8V61z M244.6,61v-1h1.5v-4.9c-0.1,0.2-0.2,0.3-0.4,0.4
	c-0.2,0.1-0.3,0.2-0.5,0.3s-0.4,0.1-0.6,0.1v-1.1c0.2,0,0.5-0.1,0.7-0.2c0.2-0.1,0.4-0.2,0.6-0.4c0.2-0.2,0.3-0.4,0.3-0.6h1V60h1.4
	v1H244.6z M251.7,61.1c-0.4,0-0.8-0.1-1.2-0.3s-0.6-0.4-0.9-0.7s-0.4-0.7-0.4-1.1l1-0.2c0,0.3,0.1,0.5,0.2,0.7
	c0.1,0.2,0.3,0.3,0.5,0.5c0.2,0.1,0.4,0.1,0.7,0.1s0.5,0,0.7-0.1s0.3-0.2,0.4-0.4c0.1-0.2,0.1-0.4,0.1-0.6c0-0.4-0.1-0.8-0.4-1
	c-0.3-0.2-0.7-0.3-1.4-0.3h-0.3v-0.9h0.3c0.5,0,0.9-0.1,1.2-0.3s0.4-0.4,0.4-0.8c0-0.3-0.1-0.6-0.3-0.8s-0.5-0.3-0.9-0.3
	c-0.2,0-0.4,0-0.6,0.1c-0.2,0.1-0.3,0.2-0.5,0.4s-0.2,0.4-0.2,0.7l-1-0.2c0.1-0.6,0.3-1.1,0.7-1.5s1-0.5,1.7-0.5
	c0.5,0,0.9,0.1,1.2,0.2c0.3,0.2,0.6,0.4,0.8,0.7s0.3,0.6,0.3,1s-0.1,0.8-0.3,1.1s-0.5,0.5-0.8,0.6c0.4,0.1,0.7,0.3,0.9,0.7
	s0.3,0.7,0.3,1.2c0,0.4-0.1,0.7-0.3,1s-0.5,0.6-0.8,0.8C252.6,61,252.2,61.1,251.7,61.1z M258.7,61v-1.6h-3.6v-0.9l3.4-4.8h1.4v4.7
	h0.9v1h-0.9V61H258.7z M256.4,58.4h2.4v-3.5L256.4,58.4z M264,61.1c-0.5,0-0.9-0.1-1.3-0.3s-0.6-0.4-0.8-0.7c-0.2-0.3-0.3-0.6-0.4-1
	l1-0.2c0,0.2,0.1,0.4,0.2,0.6c0.1,0.2,0.3,0.3,0.5,0.5c0.2,0.1,0.5,0.2,0.8,0.2s0.5-0.1,0.7-0.2c0.2-0.1,0.4-0.3,0.5-0.6
	c0.1-0.2,0.2-0.5,0.2-0.8s-0.1-0.5-0.2-0.8c-0.1-0.2-0.3-0.4-0.5-0.6c-0.2-0.1-0.5-0.2-0.7-0.2c-0.3,0-0.6,0.1-0.8,0.3
	c-0.2,0.2-0.4,0.4-0.5,0.7l-1.1-0.3v-4h4.4v1h-3.4V57c0.1-0.1,0.2-0.2,0.3-0.4c0.1-0.1,0.3-0.3,0.6-0.4c0.2-0.1,0.5-0.2,0.8-0.2
	c0.4,0,0.7,0.1,1,0.3s0.6,0.5,0.8,0.8c0.2,0.4,0.3,0.8,0.3,1.3s-0.1,0.9-0.3,1.3c-0.2,0.4-0.5,0.7-0.9,0.9
	C264.9,61,264.4,61.1,264,61.1z M270.2,61.1c-0.6,0-1.1-0.2-1.5-0.5s-0.7-0.7-0.9-1.2c-0.2-0.5-0.3-1.1-0.3-1.8
	c0-0.6,0.1-1.1,0.2-1.6s0.3-0.9,0.5-1.3c0.2-0.4,0.5-0.7,0.8-0.9s0.7-0.3,1.1-0.3s0.8,0.1,1.1,0.3c0.3,0.2,0.6,0.4,0.8,0.7
	c0.2,0.3,0.3,0.5,0.4,0.8l-1,0.3c-0.1-0.3-0.2-0.6-0.4-0.8c-0.2-0.2-0.5-0.3-0.8-0.3c-0.2,0-0.5,0.1-0.7,0.2
	c-0.2,0.1-0.4,0.3-0.5,0.5s-0.3,0.5-0.3,0.9c-0.1,0.4-0.1,0.8-0.1,1.4c0.1-0.2,0.2-0.5,0.4-0.7c0.2-0.2,0.4-0.3,0.6-0.5
	c0.3-0.1,0.5-0.2,0.8-0.2c0.4,0,0.8,0.1,1.2,0.3c0.3,0.2,0.6,0.5,0.8,0.8c0.2,0.4,0.3,0.8,0.3,1.3s-0.1,0.9-0.3,1.2
	c-0.2,0.4-0.5,0.7-0.8,0.9C271.2,61,270.7,61.1,270.2,61.1z M270.2,60.1c0.3,0,0.5-0.1,0.7-0.2s0.4-0.3,0.5-0.5s0.2-0.5,0.2-0.7
	c0-0.3-0.1-0.5-0.2-0.8c-0.1-0.2-0.3-0.4-0.5-0.5s-0.5-0.2-0.8-0.2c-0.2,0-0.5,0.1-0.7,0.2s-0.4,0.3-0.6,0.5s-0.2,0.5-0.2,0.8
	s0.1,0.5,0.2,0.8c0.1,0.2,0.3,0.4,0.5,0.5C269.7,60.1,269.9,60.1,270.2,60.1z M274.5,61l2.8-6.3h-3.7v-1h4.8v0.8l-2.8,6.5H274.5z"/>
</svg>
