<?xml version="1.0" encoding="utf-8"?>
<!-- Generator: Adobe Illustrator 24.0.2, SVG Export Plug-In . SVG Version: 6.00 Build 0)  -->
<svg version="1.1" id="Camada_1" xmlns="http://www.w3.org/2000/svg" xmlns:xlink="http://www.w3.org/1999/xlink" x="0px" y="0px"
	 viewBox="0 0 271 170" style="enable-background:new 0 0 271 170;" xml:space="preserve">
<style type="text/css">
	.st0{clip-path:url(#SVGID_2_);}
	.st1{fill:#050D21;}
	.st2{fill:#FFBD00;}
	.st3{clip-path:url(#SVGID_4_);}
	.st4{fill:#0E204C;}
	.st5{fill:#511F52;}
	.st6{clip-path:url(#SVGID_6_);}
	.st7{fill:#11286B;}
	.st8{fill:none;stroke:#11286B;stroke-width:2;stroke-linecap:round;stroke-linejoin:round;}
	.st9{fill-rule:evenodd;clip-rule:evenodd;fill:#11286B;}
	.st10{opacity:0.1;}
</style>
<g>
	<g>
		<defs>
			
				<rect id="SVGID_1_" x="37.3" y="20.5" transform="matrix(0.97 -0.2432 0.2432 0.97 -16.1821 33.9225)" width="184" height="124"/>
		</defs>
		<clipPath id="SVGID_2_">
			<use xlink:href="#SVGID_1_"  style="overflow:visible;"/>
		</clipPath>
		<g class="st0">
			<path class="st1" d="M205.6,9.5L231,109.7c1.4,5.6-1.9,11.3-7.5,12.7l-158,40c-5.6,1.4-11.2-2-12.6-7.6L27.5,54.6
				c-1.3-5.2,1.8-10.5,7-11.8L193.8,2.4C199,1.1,204.3,4.3,205.6,9.5L205.6,9.5z"/>
			<path class="st2" d="M59.2,114.5l-0.3-1.1l1.7-0.4l-1.4-5.7c-0.1,0.2-0.2,0.4-0.3,0.6c-0.2,0.2-0.3,0.4-0.5,0.5s-0.4,0.2-0.6,0.3
				l-0.3-1.3c0.3-0.1,0.5-0.2,0.7-0.4c0.2-0.2,0.4-0.4,0.5-0.6s0.2-0.5,0.2-0.8l1.2-0.3l1.9,7.4l1.6-0.4l0.3,1.1L59.2,114.5z
				 M66.1,112.8l-0.2-1c0.2-0.3,0.4-0.6,0.6-0.8c0.2-0.2,0.3-0.5,0.5-0.7c0.1-0.2,0.3-0.4,0.4-0.6s0.3-0.5,0.5-0.7
				c0.2-0.3,0.3-0.6,0.5-0.8c0.1-0.3,0.3-0.6,0.3-0.8c0.1-0.3,0.1-0.5,0.2-0.8c0-0.3,0-0.5,0-0.7c-0.1-0.5-0.3-0.8-0.6-1
				c-0.3-0.2-0.7-0.3-1.1-0.1c-0.3,0.1-0.6,0.2-0.8,0.5c-0.2,0.2-0.3,0.5-0.3,0.8s0,0.6,0,1l-1.2,0.1c-0.1-0.5-0.1-1,0-1.5
				s0.4-0.9,0.7-1.2c0.4-0.3,0.8-0.6,1.3-0.7c0.6-0.1,1.1-0.2,1.5,0c0.5,0.1,0.8,0.3,1.1,0.7c0.3,0.3,0.5,0.7,0.7,1.3
				c0.1,0.4,0.1,0.8,0.1,1.2c0,0.4-0.1,0.8-0.3,1.2c-0.1,0.4-0.3,0.8-0.5,1.2c-0.2,0.4-0.5,0.8-0.7,1.2c-0.3,0.4-0.5,0.7-0.8,1.1
				l3.7-0.9l0.3,1.1L66.1,112.8z M76.8,110.2c-0.5,0.1-1,0.1-1.5,0.1c-0.5-0.1-0.9-0.3-1.2-0.6c-0.3-0.3-0.6-0.7-0.8-1.1l1.1-0.5
				c0.1,0.3,0.3,0.5,0.5,0.7s0.4,0.3,0.7,0.4c0.3,0.1,0.6,0,0.9,0c0.3-0.1,0.6-0.2,0.8-0.4c0.2-0.2,0.3-0.4,0.4-0.6s0-0.5,0-0.8
				c-0.1-0.5-0.4-0.9-0.8-1c-0.4-0.2-0.9-0.1-1.7,0l-0.3,0.1l-0.3-1.1l0.3-0.1c0.6-0.2,1.1-0.4,1.3-0.7c0.3-0.3,0.4-0.6,0.3-1.1
				c-0.1-0.4-0.3-0.6-0.6-0.8c-0.3-0.2-0.7-0.2-1.1-0.1c-0.3,0.1-0.5,0.2-0.7,0.3c-0.2,0.2-0.3,0.4-0.4,0.6s-0.1,0.5-0.1,0.9
				l-1.2,0.1c-0.1-0.7,0.1-1.4,0.4-1.9c0.4-0.5,1-0.9,1.8-1.1c0.5-0.1,1-0.2,1.5-0.1c0.4,0.1,0.8,0.3,1.1,0.6
				c0.3,0.3,0.5,0.6,0.6,1.1s0.1,0.9-0.1,1.3s-0.4,0.7-0.7,0.9c0.5,0,0.9,0.2,1.3,0.5c0.3,0.3,0.6,0.7,0.7,1.3
				c0.1,0.4,0.1,0.9,0,1.3s-0.4,0.8-0.7,1.1C77.9,109.8,77.4,110,76.8,110.2z M86.2,107.8l-0.5-1.9l-4.2,1.1l-0.3-1l2.5-6.6l1.6-0.4
				l1.4,5.5l1.1-0.3l0.3,1.2l-1.1,0.3l0.5,1.9L86.2,107.8z M82.7,105.4l2.7-0.7l-1-4.1L82.7,105.4z M98.1,104.9
				c-0.6,0.2-1.1,0.2-1.6,0.1s-0.9-0.3-1.2-0.6c-0.3-0.3-0.6-0.6-0.7-1l1.1-0.6c0.1,0.2,0.2,0.4,0.4,0.6c0.2,0.2,0.4,0.3,0.7,0.4
				c0.3,0.1,0.6,0.1,1,0c0.3-0.1,0.6-0.2,0.8-0.4c0.2-0.2,0.3-0.5,0.4-0.8s0.1-0.6,0-0.9s-0.2-0.6-0.4-0.9c-0.2-0.2-0.4-0.4-0.7-0.5
				c-0.3-0.1-0.6-0.1-0.9,0c-0.4,0.1-0.6,0.3-0.9,0.5c-0.2,0.3-0.4,0.6-0.4,0.9h-1.3L93.1,97l5.1-1.3l0.3,1.2l-3.9,1l0.7,2.7
				c0-0.1,0.1-0.3,0.2-0.5s0.3-0.4,0.6-0.6c0.2-0.2,0.5-0.3,0.9-0.4s0.8-0.1,1.3,0c0.4,0.1,0.8,0.3,1.2,0.7c0.4,0.4,0.6,0.8,0.8,1.5
				c0.1,0.6,0.1,1.1,0,1.6s-0.4,1-0.8,1.3C99.1,104.5,98.7,104.7,98.1,104.9z M106.6,102.7c-0.7,0.2-1.3,0.2-1.9-0.1
				c-0.5-0.2-1-0.6-1.4-1.2s-0.6-1.2-0.8-2c-0.2-0.6-0.2-1.3-0.3-1.9c0-0.6,0.1-1.1,0.2-1.6c0.2-0.5,0.4-0.9,0.7-1.2
				c0.3-0.3,0.7-0.6,1.2-0.7s1-0.1,1.4,0s0.8,0.3,1.1,0.6c0.3,0.3,0.5,0.5,0.7,0.9l-1.1,0.6c-0.2-0.3-0.4-0.6-0.8-0.8
				c-0.3-0.2-0.7-0.2-1-0.1s-0.5,0.2-0.7,0.4c-0.2,0.2-0.3,0.4-0.4,0.8c-0.1,0.3-0.1,0.7-0.1,1.2s0.1,1,0.3,1.6
				c0-0.3,0.1-0.6,0.3-0.9c0.2-0.3,0.4-0.5,0.6-0.7c0.3-0.2,0.5-0.4,0.8-0.4c0.5-0.1,1-0.1,1.4,0s0.8,0.4,1.2,0.7
				c0.3,0.4,0.6,0.8,0.7,1.4c0.1,0.5,0.1,1,0,1.5s-0.3,0.9-0.7,1.3C107.6,102.3,107.2,102.6,106.6,102.7z M106.3,101.6
				c0.3-0.1,0.6-0.2,0.8-0.4c0.2-0.2,0.3-0.5,0.4-0.7c0.1-0.3,0.1-0.6,0-0.9s-0.2-0.6-0.4-0.8c-0.2-0.2-0.4-0.4-0.7-0.5
				c-0.3-0.1-0.6-0.1-0.9,0s-0.5,0.2-0.7,0.4c-0.2,0.2-0.4,0.4-0.5,0.7c-0.1,0.3-0.1,0.6,0,1c0.1,0.3,0.2,0.6,0.4,0.8
				c0.2,0.2,0.5,0.4,0.8,0.5C105.6,101.7,105.9,101.7,106.3,101.6z M112.7,101.1l1.4-8.2l-4.3,1.1l-0.3-1.1l5.6-1.4l0.2,1l-1.4,8.3
				L112.7,101.1z M122.6,98.7c-0.6,0.2-1.2,0.2-1.7,0.1s-0.9-0.3-1.3-0.6c-0.3-0.3-0.6-0.7-0.7-1.2s-0.1-1,0.1-1.4s0.4-0.8,0.8-1
				c-0.5-0.1-0.8-0.3-1.1-0.5c-0.3-0.3-0.5-0.6-0.6-1c-0.1-0.5-0.1-0.9,0.1-1.3s0.4-0.7,0.8-1s0.8-0.5,1.4-0.6
				c0.5-0.1,1-0.2,1.4-0.1c0.5,0,0.9,0.2,1.2,0.5c0.3,0.3,0.6,0.6,0.7,1.2c0.1,0.4,0.1,0.8-0.1,1.2c-0.1,0.4-0.4,0.7-0.7,1
				c0.5,0.1,0.9,0.2,1.2,0.5c0.3,0.3,0.6,0.7,0.7,1.2s0.1,1,0,1.4s-0.4,0.8-0.8,1.2C123.8,98.3,123.3,98.5,122.6,98.7z M122.4,97.6
				c0.5-0.1,0.9-0.4,1.2-0.7c0.2-0.4,0.3-0.7,0.2-1.2c-0.1-0.5-0.4-0.8-0.7-0.9c-0.4-0.2-0.8-0.2-1.3-0.1s-0.9,0.4-1.2,0.7
				c-0.3,0.3-0.3,0.7-0.2,1.2c0.1,0.4,0.3,0.7,0.7,0.9C121.4,97.7,121.8,97.7,122.4,97.6z M121.4,93.7c0.4-0.1,0.8-0.3,1-0.6
				c0.2-0.3,0.3-0.7,0.2-1c-0.1-0.4-0.3-0.7-0.7-0.9c-0.3-0.2-0.7-0.2-1.2,0c-0.5,0.1-0.8,0.3-1,0.6c-0.2,0.3-0.3,0.6-0.2,1.1
				c0.1,0.4,0.3,0.7,0.7,0.8C120.5,93.8,120.9,93.8,121.4,93.7z M133.2,86.8c0.7-0.2,1.3-0.1,1.9,0.1c0.5,0.2,1,0.7,1.4,1.2
				c0.4,0.6,0.7,1.3,0.9,2c0.2,0.9,0.3,1.7,0.2,2.4c-0.1,0.8-0.3,1.4-0.6,1.9c-0.4,0.5-0.9,0.9-1.5,1c-0.5,0.1-1,0.1-1.5,0
				c-0.4-0.1-0.8-0.3-1.1-0.5c-0.3-0.3-0.5-0.6-0.7-0.9l1.1-0.6c0.2,0.3,0.4,0.6,0.8,0.8c0.3,0.2,0.7,0.2,1.1,0.1
				c0.3-0.1,0.5-0.2,0.7-0.4c0.2-0.2,0.4-0.4,0.5-0.8c0.1-0.3,0.2-0.7,0.1-1.2c0-0.5-0.1-1-0.2-1.6c0,0.3-0.1,0.6-0.3,0.9
				s-0.4,0.5-0.6,0.7c-0.2,0.2-0.5,0.3-0.8,0.4c-0.5,0.1-1,0.1-1.5,0s-0.9-0.4-1.2-0.7c-0.3-0.4-0.6-0.9-0.7-1.4
				c-0.1-0.5-0.1-1,0-1.5s0.3-0.9,0.7-1.3C132.1,87.2,132.6,86.9,133.2,86.8z M133.5,87.9c-0.3,0.1-0.6,0.2-0.8,0.4
				c-0.2,0.2-0.3,0.5-0.4,0.8c-0.1,0.3-0.1,0.6,0,0.9s0.2,0.6,0.4,0.8c0.2,0.2,0.4,0.4,0.7,0.5s0.6,0.1,0.9,0
				c0.3-0.1,0.5-0.2,0.7-0.4c0.2-0.2,0.4-0.5,0.5-0.8s0.1-0.6,0-1c-0.1-0.2-0.2-0.5-0.3-0.7s-0.3-0.4-0.5-0.5s-0.4-0.2-0.7-0.2
				C134,87.8,133.7,87.8,133.5,87.9z M140.6,94.1l-0.3-1.1l1.7-0.4l-1.4-5.7c-0.1,0.2-0.2,0.4-0.3,0.6c-0.2,0.2-0.3,0.4-0.5,0.5
				s-0.4,0.2-0.6,0.3l-0.3-1.3c0.3-0.1,0.5-0.2,0.7-0.4c0.2-0.2,0.4-0.4,0.5-0.6s0.2-0.5,0.2-0.8l1.2-0.3l1.9,7.4l1.6-0.4l0.3,1.1
				L140.6,94.1z M150.2,91.8c-0.7,0.2-1.3,0.1-1.9-0.1c-0.5-0.3-1-0.7-1.4-1.3c-0.4-0.6-0.7-1.3-0.9-2.1c-0.2-0.8-0.3-1.6-0.2-2.3
				c0-0.7,0.2-1.3,0.6-1.8c0.4-0.5,0.9-0.8,1.6-1c0.7-0.2,1.3-0.1,1.9,0.1c0.5,0.3,1,0.7,1.4,1.3c0.4,0.6,0.7,1.3,0.9,2.1
				c0.2,0.8,0.3,1.6,0.2,2.3c0,0.7-0.2,1.3-0.6,1.8S150.9,91.6,150.2,91.8z M149.9,90.6c0.4-0.1,0.8-0.3,0.9-0.7
				c0.2-0.4,0.2-0.8,0.2-1.3s-0.1-1-0.2-1.6c-0.1-0.4-0.2-0.8-0.4-1.1c-0.1-0.4-0.3-0.7-0.5-0.9c-0.2-0.3-0.4-0.4-0.7-0.6
				c-0.3-0.1-0.6-0.1-0.9-0.1c-0.3,0.1-0.6,0.2-0.8,0.5c-0.2,0.2-0.3,0.5-0.3,0.8c-0.1,0.3-0.1,0.7,0,1.1c0,0.4,0.1,0.8,0.2,1.2
				c0.1,0.6,0.3,1.1,0.5,1.5c0.2,0.5,0.5,0.8,0.8,1C149.1,90.6,149.4,90.7,149.9,90.6z M155.4,90.4l-0.3-1.1l1.7-0.4l-1.4-5.7
				c-0.1,0.2-0.2,0.4-0.3,0.6c-0.2,0.2-0.3,0.4-0.5,0.5s-0.4,0.2-0.6,0.3l-0.3-1.3c0.3-0.1,0.5-0.2,0.7-0.4c0.2-0.2,0.4-0.4,0.5-0.6
				s0.2-0.5,0.2-0.8l1.2-0.3l1.9,7.4l1.6-0.4l0.3,1.1L155.4,90.4z M166.1,87.7l-0.2-1c0.2-0.3,0.4-0.6,0.6-0.8
				c0.2-0.2,0.3-0.5,0.5-0.7c0.1-0.2,0.3-0.4,0.4-0.6c0.1-0.2,0.3-0.5,0.5-0.7c0.2-0.3,0.3-0.6,0.5-0.9c0.1-0.3,0.3-0.6,0.3-0.8
				c0.1-0.3,0.1-0.5,0.2-0.8c0-0.3,0-0.5-0.1-0.7c-0.1-0.5-0.3-0.8-0.6-1s-0.7-0.3-1.2-0.1c-0.3,0.1-0.6,0.2-0.8,0.5
				c-0.2,0.2-0.3,0.5-0.3,0.8s0,0.6,0,1l-1.2,0.1c-0.1-0.5-0.1-1,0-1.5s0.4-0.9,0.7-1.2c0.4-0.3,0.8-0.6,1.3-0.7
				c0.6-0.1,1.1-0.2,1.5-0.1c0.5,0.1,0.8,0.3,1.1,0.7c0.3,0.3,0.5,0.7,0.7,1.3c0.1,0.4,0.1,0.8,0.1,1.2c0,0.4-0.1,0.8-0.3,1.2
				c-0.1,0.4-0.3,0.8-0.5,1.2c-0.2,0.4-0.5,0.8-0.7,1.2c-0.3,0.4-0.5,0.7-0.8,1.1l3.7-0.9l0.3,1.1L166.1,87.7z M174,85.7l-0.3-1.1
				l1.7-0.4l-1.4-5.7c-0.1,0.2-0.2,0.4-0.3,0.6c-0.2,0.2-0.3,0.4-0.5,0.5s-0.4,0.2-0.6,0.3l-0.3-1.3c0.3-0.1,0.5-0.2,0.7-0.4
				c0.2-0.2,0.4-0.4,0.5-0.6s0.2-0.5,0.2-0.8l1.2-0.3l1.9,7.4l1.6-0.4l0.3,1.1L174,85.7z M183.4,83.5c-0.5,0.1-1,0.1-1.5,0.1
				c-0.5-0.1-0.9-0.3-1.2-0.6c-0.3-0.3-0.6-0.7-0.8-1.1l1.1-0.5c0.1,0.3,0.3,0.5,0.5,0.7s0.4,0.3,0.7,0.4s0.6,0,0.9,0
				c0.3-0.1,0.6-0.2,0.8-0.4c0.2-0.2,0.3-0.4,0.4-0.6c0.1-0.2,0-0.5,0-0.8c-0.1-0.5-0.4-0.9-0.8-1c-0.4-0.2-0.9-0.1-1.7,0l-0.3,0.1
				l-0.3-1.1l0.3-0.1c0.6-0.2,1.1-0.4,1.3-0.7c0.3-0.3,0.4-0.6,0.3-1.1c-0.1-0.4-0.3-0.6-0.6-0.8c-0.3-0.2-0.7-0.2-1.1-0.1
				c-0.3,0.1-0.5,0.2-0.7,0.3c-0.2,0.2-0.3,0.4-0.4,0.6c-0.1,0.2-0.1,0.5-0.1,0.9l-1.2,0.1c-0.1-0.7,0.1-1.4,0.4-1.9
				c0.4-0.5,1-0.9,1.8-1.1c0.5-0.1,1-0.2,1.5-0.1c0.4,0.1,0.8,0.3,1.1,0.6c0.3,0.3,0.5,0.6,0.6,1.1s0.1,0.9-0.1,1.3
				c-0.2,0.4-0.4,0.7-0.7,0.9c0.5,0,0.9,0.2,1.3,0.5c0.3,0.3,0.6,0.7,0.7,1.3c0.1,0.4,0.1,0.9,0,1.3s-0.4,0.8-0.7,1.1
				C184.5,83.1,184,83.3,183.4,83.5z M188.2,82.2l-0.3-1.1l1.7-0.4l-1.4-5.7c-0.1,0.2-0.2,0.4-0.3,0.6c-0.2,0.2-0.3,0.4-0.5,0.5
				s-0.4,0.2-0.6,0.3l-0.3-1.3c0.3-0.1,0.5-0.2,0.7-0.4c0.2-0.2,0.4-0.4,0.5-0.6s0.2-0.5,0.2-0.8l1.2-0.3l1.9,7.4l1.6-0.4l0.3,1.1
				L188.2,82.2z"/>
			<path class="st2" d="M72.8,51.4l-23.4,5.9c-2.8,0.7-4.4,3.5-3.7,6.3L49,76.8c0.7,2.8,3.5,4.5,6.3,3.8l23.4-5.9
				c2.8-0.7,4.4-3.5,3.7-6.3l-3.3-13.2C78.4,52.4,75.6,50.7,72.8,51.4z"/>
			<path class="st2" d="M144.6,107.6L64.2,128c-1.2,0.3-1.9,1.5-1.6,2.6c0.3,1.2,1.5,1.9,2.6,1.6l80.4-20.4c1.2-0.3,1.9-1.5,1.6-2.6
				C147,108.1,145.8,107.4,144.6,107.6z"/>
			<path class="st2" d="M122.3,123.2l-55.7,14.1c-1.2,0.3-1.9,1.5-1.6,2.6c0.3,1.2,1.5,1.9,2.6,1.6l55.7-14.1
				c1.2-0.3,1.9-1.5,1.6-2.6C124.6,123.6,123.4,122.9,122.3,123.2z"/>
			<path class="st2" d="M191.2,43.8c-0.3-0.2-0.7-0.4-1-0.6c-0.2-0.1-0.4-0.2-0.6-0.3c1.5-2.7,2-5.5,1.2-8.5s-2.5-5.3-5.1-6.9
				c0.1-0.2,0.2-0.4,0.3-0.5c0.2-0.3,0.4-0.7,0.6-1l0,0l0,0c0,0,0,0,0.1,0c0.4,0.3,0.8,0.5,1.1,0.8c0.8,0.6,1.4,1.2,2.1,2
				c0.7,0.9,1.3,1.8,1.8,2.8c0.2,0.5,0.4,1,0.6,1.5c0.1,0.2,0.4,1.3,0.4,1.4c0.1,0.4,0.1,0.7,0.2,1.1c0.1,1,0.1,2,0,3
				c-0.1,0.7-0.2,1.4-0.4,2.1c-0.2,0.7-0.5,1.5-0.8,2.2C191.6,43.1,191.4,43.4,191.2,43.8L191.2,43.8L191.2,43.8z"/>
			<path class="st2" d="M183.9,30.6c0.3-0.5,0.6-1,0.9-1.6c1.8,1.1,3.1,2.6,3.9,4.5c1.2,2.9,0.9,5.7-0.6,8.4c-0.5-0.3-1-0.6-1.6-1
				c1-1.8,1.3-3.7,0.8-5.7C186.8,33.2,185.7,31.7,183.9,30.6L183.9,30.6z"/>
			<path class="st2" d="M184.9,40c-0.5-0.3-1-0.6-1.6-0.9c0.5-0.9,0.7-1.9,0.4-2.9s-0.9-1.8-1.8-2.4c0.3-0.5,0.6-1,0.9-1.6
				C185.5,33.6,186.6,37.2,184.9,40L184.9,40z"/>
		</g>
	</g>
</g>
<g>
	<g>
		<defs>
			
				<rect id="SVGID_3_" x="36.9" y="34.8" transform="matrix(0.9924 -0.1227 0.1227 0.9924 -10.9035 16.5472)" width="184" height="124"/>
		</defs>
		<clipPath id="SVGID_4_">
			<use xlink:href="#SVGID_3_"  style="overflow:visible;"/>
		</clipPath>
		<g class="st3">
			<path class="st4" d="M213.5,33.7l13,102.6c0.7,5.7-3.3,11-9,11.7L55.8,168.3c-5.7,0.7-10.9-3.3-11.6-9.1l-13-102.6
				c-0.7-5.3,3.1-10.2,8.4-10.9l163.1-20.6C208,24.6,212.9,28.3,213.5,33.7L213.5,33.7z"/>
			<path class="st4" d="M213.5,33.7l13,102.6c0.7,5.7-3.3,11-9,11.7L55.8,168.3c-5.7,0.7-10.9-3.3-11.6-9.1l-13-102.6
				c-0.7-5.3,3.1-10.2,8.4-10.9l163.1-20.6C208,24.6,212.9,28.3,213.5,33.7L213.5,33.7z"/>
			<path class="st4" d="M213.5,33.7l13,102.6c0.7,5.7-3.3,11-9,11.7L55.8,168.3c-5.7,0.7-10.9-3.3-11.6-9.1l-13-102.6
				c-0.7-5.3,3.1-10.2,8.4-10.9l163.1-20.6C208,24.6,212.9,28.3,213.5,33.7L213.5,33.7z"/>
			<path class="st5" d="M55.4,120l-0.1-1.1l1.8-0.2l-0.7-5.9c-0.1,0.2-0.2,0.4-0.4,0.6s-0.4,0.3-0.6,0.4c-0.2,0.1-0.4,0.2-0.6,0.2
				l-0.2-1.3c0.3,0,0.5-0.1,0.8-0.3c0.2-0.2,0.5-0.3,0.6-0.6c0.2-0.2,0.3-0.5,0.3-0.7l1.3-0.2l0.9,7.6l1.6-0.2l0.1,1.1L55.4,120z
				 M62.5,119.1l-0.1-1c0.3-0.3,0.5-0.5,0.7-0.7s0.4-0.4,0.5-0.6c0.2-0.2,0.3-0.4,0.5-0.6c0.2-0.2,0.4-0.4,0.6-0.7
				c0.2-0.3,0.4-0.5,0.6-0.8s0.3-0.5,0.4-0.8s0.2-0.5,0.3-0.8c0.1-0.3,0.1-0.5,0-0.7c-0.1-0.5-0.2-0.8-0.5-1.1
				c-0.3-0.3-0.6-0.4-1.1-0.3c-0.3,0-0.6,0.2-0.8,0.4c-0.2,0.2-0.3,0.4-0.4,0.7c-0.1,0.3-0.1,0.6-0.1,1h-1.2c-0.1-0.5,0-1,0.2-1.5
				s0.5-0.8,0.9-1.1c0.4-0.3,0.8-0.5,1.3-0.5c0.6-0.1,1.1,0,1.5,0.1c0.4,0.2,0.8,0.4,1.1,0.8c0.3,0.4,0.4,0.8,0.5,1.3
				c0,0.4,0,0.8-0.1,1.2c-0.1,0.4-0.2,0.8-0.4,1.2c-0.2,0.4-0.4,0.7-0.7,1.1c-0.3,0.4-0.5,0.7-0.8,1.1c-0.3,0.3-0.6,0.7-0.9,1
				l3.8-0.5l0.1,1.1L62.5,119.1z M73.4,117.9c-0.5,0.1-1,0-1.5-0.1c-0.4-0.2-0.8-0.4-1.1-0.7c-0.3-0.3-0.5-0.7-0.6-1.2l1.2-0.4
				c0.1,0.3,0.2,0.6,0.4,0.8c0.2,0.2,0.4,0.4,0.6,0.5c0.3,0.1,0.5,0.1,0.9,0.1s0.6-0.1,0.8-0.3c0.2-0.2,0.4-0.3,0.4-0.6
				c0.1-0.2,0.1-0.5,0.1-0.8c-0.1-0.5-0.3-0.9-0.7-1.1c-0.4-0.2-0.9-0.3-1.7-0.2h-0.3l-0.1-1.1h0.3c0.6-0.1,1.1-0.2,1.4-0.5
				c0.3-0.2,0.4-0.6,0.4-1s-0.2-0.7-0.5-0.9c-0.3-0.2-0.6-0.3-1.1-0.2c-0.3,0-0.5,0.1-0.7,0.3c-0.2,0.1-0.4,0.3-0.5,0.5
				s-0.2,0.5-0.2,0.9l-1.2-0.1c0-0.7,0.2-1.4,0.7-1.8c0.4-0.5,1.1-0.8,1.9-0.9c0.6-0.1,1,0,1.5,0.1c0.4,0.1,0.8,0.4,1,0.7
				c0.3,0.3,0.4,0.7,0.5,1.1c0.1,0.5,0,0.9-0.2,1.3s-0.5,0.7-0.9,0.8c0.5,0.1,0.9,0.3,1.2,0.7c0.3,0.3,0.5,0.8,0.6,1.4
				c0.1,0.4,0,0.9-0.2,1.3s-0.5,0.8-0.9,1C74.5,117.6,74,117.8,73.4,117.9z M83,116.6l-0.2-1.9l-4.3,0.5l-0.1-1l3.3-6.2l1.6-0.2
				l0.7,5.6l1.1-0.1l0.1,1.2l-1.1,0.1l0.2,1.9L83,116.6z M79.9,113.8l2.8-0.3l-0.5-4.2L79.9,113.8z M95.2,115.2
				c-0.6,0.1-1.1,0-1.6-0.1c-0.4-0.2-0.8-0.4-1.1-0.7c-0.3-0.3-0.5-0.7-0.6-1.1l1.2-0.4c0.1,0.2,0.2,0.5,0.4,0.7
				c0.2,0.2,0.4,0.4,0.7,0.5c0.3,0.1,0.6,0.1,1,0.1c0.3,0,0.6-0.2,0.8-0.4c0.2-0.2,0.4-0.4,0.5-0.7c0.1-0.3,0.1-0.6,0.1-0.9
				s-0.2-0.6-0.3-0.9c-0.2-0.3-0.4-0.5-0.7-0.6c-0.3-0.1-0.6-0.2-0.9-0.2c-0.4,0-0.7,0.2-0.9,0.4c-0.3,0.2-0.4,0.5-0.5,0.9l-1.3-0.2
				l-0.6-4.7l5.2-0.6l0.1,1.2l-4,0.5l0.3,2.8c0-0.1,0.1-0.3,0.3-0.5c0.2-0.2,0.4-0.4,0.6-0.5c0.3-0.2,0.6-0.3,0.9-0.3
				c0.4-0.1,0.9,0,1.3,0.2s0.8,0.4,1.1,0.8c0.3,0.4,0.5,0.9,0.6,1.5s0,1.1-0.2,1.6s-0.5,0.9-0.9,1.2S95.8,115.1,95.2,115.2z
				 M103.8,114.1c-0.7,0.1-1.4,0-1.9-0.3s-0.9-0.8-1.2-1.4c-0.3-0.6-0.5-1.3-0.6-2.1c-0.1-0.7-0.1-1.3,0-1.9s0.2-1.1,0.4-1.6
				c0.2-0.5,0.5-0.9,0.8-1.1c0.4-0.3,0.8-0.5,1.3-0.5c0.5-0.1,1,0,1.4,0.2s0.7,0.4,1,0.7c0.3,0.3,0.5,0.6,0.5,0.9l-1.2,0.5
				c-0.1-0.4-0.4-0.7-0.7-0.9c-0.3-0.2-0.6-0.3-1-0.2c-0.3,0-0.5,0.1-0.8,0.3c-0.2,0.2-0.4,0.4-0.5,0.7c-0.1,0.3-0.2,0.7-0.3,1.2
				c0,0.5,0,1,0.1,1.6c0.1-0.3,0.2-0.6,0.4-0.8c0.2-0.3,0.4-0.5,0.7-0.6c0.3-0.2,0.6-0.3,0.9-0.3c0.5-0.1,1,0,1.4,0.2
				s0.8,0.5,1.1,0.9c0.3,0.4,0.5,0.9,0.5,1.5c0.1,0.5,0,1.1-0.2,1.5c-0.2,0.5-0.5,0.8-0.8,1.2C105,113.8,104.5,114,103.8,114.1z
				 M103.7,113c0.3,0,0.6-0.1,0.8-0.3c0.2-0.2,0.4-0.4,0.5-0.7c0.1-0.3,0.1-0.6,0.1-0.9s-0.1-0.6-0.3-0.9c-0.2-0.3-0.4-0.4-0.7-0.6
				c-0.3-0.1-0.6-0.2-0.9-0.1c-0.3,0-0.5,0.1-0.8,0.3c-0.3,0.2-0.5,0.4-0.6,0.7c-0.1,0.3-0.2,0.6-0.1,1c0,0.3,0.2,0.6,0.3,0.9
				c0.2,0.2,0.4,0.4,0.7,0.6C103.1,113,103.4,113,103.7,113z M110.2,113.2l2.4-8l-4.4,0.5l-0.1-1.2l5.7-0.7l0.1,1l-2.4,8.1
				L110.2,113.2z M120.3,112.1c-0.6,0.1-1.2,0-1.7-0.1c-0.5-0.2-0.9-0.4-1.2-0.8c-0.3-0.4-0.5-0.8-0.5-1.3c-0.1-0.5,0-1,0.2-1.4
				s0.5-0.7,1-0.9c-0.4-0.2-0.8-0.4-1-0.7c-0.2-0.3-0.4-0.7-0.5-1.1c-0.1-0.5,0-0.9,0.2-1.3s0.5-0.7,0.9-0.9
				c0.4-0.2,0.9-0.4,1.4-0.5s1,0,1.4,0.1c0.5,0.1,0.8,0.3,1.2,0.6c0.3,0.3,0.5,0.7,0.6,1.2c0.1,0.4,0,0.8-0.2,1.2
				c-0.2,0.4-0.4,0.6-0.8,0.9c0.5,0.1,0.9,0.3,1.2,0.7s0.5,0.8,0.6,1.3s0,1-0.2,1.4s-0.5,0.8-0.9,1
				C121.5,111.8,120.9,112,120.3,112.1z M120.2,110.9c0.5-0.1,1-0.3,1.2-0.6c0.3-0.3,0.4-0.7,0.3-1.1c-0.1-0.5-0.3-0.8-0.6-1
				c-0.3-0.2-0.8-0.3-1.3-0.2c-0.5,0.1-0.9,0.2-1.2,0.5c-0.3,0.3-0.4,0.7-0.4,1.2c0.1,0.4,0.3,0.8,0.6,1
				C119.2,110.9,119.6,111,120.2,110.9z M119.7,106.9c0.5-0.1,0.8-0.2,1.1-0.5c0.3-0.3,0.4-0.6,0.3-1s-0.2-0.8-0.5-0.9
				c-0.3-0.2-0.7-0.3-1.2-0.2c-0.5,0.1-0.8,0.2-1.1,0.5c-0.2,0.3-0.3,0.6-0.3,1.1c0,0.4,0.2,0.7,0.5,0.9
				C118.8,106.9,119.2,107,119.7,106.9z M132.3,101.5c0.7-0.1,1.3,0,1.9,0.3c0.5,0.3,0.9,0.8,1.2,1.4s0.5,1.3,0.6,2.1
				c0.1,0.9,0.1,1.7-0.1,2.4c-0.2,0.7-0.4,1.3-0.9,1.8c-0.4,0.5-1,0.7-1.6,0.8c-0.5,0.1-1,0-1.5-0.1c-0.4-0.2-0.8-0.4-1-0.7
				c-0.3-0.3-0.5-0.6-0.6-0.9l1.2-0.5c0.1,0.4,0.4,0.7,0.7,0.9c0.3,0.2,0.7,0.3,1.1,0.2c0.3,0,0.5-0.1,0.8-0.3
				c0.2-0.2,0.4-0.4,0.5-0.7c0.1-0.3,0.2-0.7,0.3-1.1c0-0.5,0-1,0-1.6c-0.1,0.3-0.2,0.6-0.4,0.9s-0.4,0.5-0.7,0.7s-0.6,0.3-0.8,0.3
				c-0.5,0.1-1,0-1.5-0.2c-0.4-0.2-0.8-0.5-1.1-0.9s-0.5-0.9-0.5-1.5c-0.1-0.5,0-1.1,0.1-1.5c0.2-0.5,0.4-0.9,0.8-1.2
				C131.1,101.8,131.7,101.6,132.3,101.5z M132.4,102.7c-0.3,0-0.6,0.2-0.8,0.3c-0.2,0.2-0.4,0.4-0.5,0.7c-0.1,0.3-0.1,0.6-0.1,0.9
				s0.1,0.6,0.3,0.9s0.4,0.5,0.7,0.6s0.6,0.2,0.9,0.1c0.3,0,0.5-0.1,0.8-0.3c0.3-0.2,0.4-0.4,0.6-0.7c0.1-0.3,0.2-0.6,0.1-1
				c0-0.3-0.1-0.5-0.2-0.7c-0.1-0.2-0.2-0.4-0.4-0.5s-0.4-0.3-0.6-0.3C132.9,102.7,132.7,102.6,132.4,102.7z M138.7,109.7l-0.1-1.1
				l1.8-0.2l-0.7-5.9c-0.1,0.2-0.2,0.4-0.4,0.6s-0.4,0.3-0.6,0.4c-0.2,0.1-0.4,0.2-0.6,0.2l-0.2-1.3c0.3,0,0.5-0.1,0.8-0.3
				c0.2-0.2,0.5-0.3,0.6-0.6c0.2-0.2,0.3-0.5,0.3-0.7l1.3-0.2l0.9,7.6l1.6-0.2l0.1,1.1L138.7,109.7z M148.5,108.6
				c-0.7,0.1-1.3,0-1.9-0.4c-0.5-0.3-0.9-0.8-1.2-1.5s-0.5-1.4-0.6-2.2c-0.1-0.8-0.1-1.6,0-2.3c0.1-0.7,0.4-1.3,0.8-1.7
				c0.4-0.5,1-0.7,1.7-0.8c0.7-0.1,1.3,0,1.8,0.4c0.5,0.3,0.9,0.8,1.2,1.5c0.3,0.6,0.5,1.4,0.6,2.2c0.1,0.8,0.1,1.6,0,2.3
				c-0.1,0.7-0.4,1.3-0.8,1.7C149.8,108.2,149.2,108.5,148.5,108.6z M148.3,107.4c0.5-0.1,0.8-0.3,1-0.6c0.2-0.3,0.3-0.8,0.4-1.3
				c0.1-0.5,0-1.1,0-1.6c-0.1-0.4-0.1-0.8-0.2-1.2c-0.1-0.4-0.2-0.7-0.4-1s-0.4-0.5-0.6-0.6c-0.2-0.2-0.5-0.2-0.9-0.2
				c-0.3,0-0.6,0.2-0.8,0.4c-0.2,0.2-0.3,0.5-0.4,0.8c-0.1,0.3-0.2,0.7-0.2,1.1s0,0.8,0.1,1.2c0.1,0.6,0.2,1.1,0.4,1.6
				s0.4,0.9,0.7,1.1C147.5,107.3,147.9,107.4,148.3,107.4z M153.8,107.9l-0.1-1.1l1.8-0.2l-0.7-5.9c-0.1,0.2-0.2,0.4-0.4,0.6
				s-0.4,0.3-0.6,0.4c-0.2,0.1-0.4,0.2-0.6,0.2l-0.2-1.3c0.3,0,0.5-0.1,0.8-0.3c0.2-0.2,0.5-0.3,0.6-0.6c0.2-0.2,0.3-0.5,0.3-0.7
				l1.3-0.2l0.9,7.6l1.6-0.2l0.1,1.1L153.8,107.9z M164.8,106.5l-0.1-1c0.3-0.3,0.5-0.5,0.7-0.7s0.4-0.4,0.5-0.6
				c0.2-0.2,0.3-0.4,0.5-0.6s0.4-0.4,0.6-0.7c0.2-0.3,0.4-0.5,0.6-0.8c0.2-0.3,0.3-0.5,0.4-0.8c0.1-0.3,0.2-0.5,0.3-0.8
				s0.1-0.5,0-0.7c-0.1-0.5-0.2-0.8-0.5-1.1c-0.3-0.3-0.6-0.4-1.1-0.3c-0.3,0-0.6,0.2-0.8,0.4c-0.2,0.2-0.3,0.4-0.4,0.7
				c-0.1,0.3-0.1,0.6-0.1,1h-1.2c-0.1-0.6,0-1.1,0.2-1.5c0.2-0.5,0.5-0.8,0.9-1.1c0.4-0.3,0.8-0.5,1.3-0.5c0.6-0.1,1.1,0,1.5,0.1
				c0.4,0.2,0.8,0.4,1.1,0.8s0.4,0.8,0.5,1.3c0.1,0.4,0,0.8-0.1,1.2c-0.1,0.4-0.2,0.8-0.4,1.2c-0.2,0.4-0.4,0.7-0.7,1.1
				s-0.5,0.7-0.8,1.1c-0.3,0.3-0.6,0.7-0.9,1l3.8-0.5l0.1,1.1L164.8,106.5z M172.9,105.5l-0.1-1.1l1.8-0.2l-0.7-5.9
				c-0.1,0.2-0.2,0.4-0.4,0.6s-0.4,0.3-0.6,0.4c-0.2,0.1-0.4,0.2-0.6,0.2l-0.2-1.3c0.3,0,0.5-0.1,0.8-0.3c0.2-0.2,0.5-0.3,0.6-0.6
				c0.2-0.2,0.3-0.5,0.3-0.7l1.2-0.2l0.9,7.6l1.6-0.2l0.1,1.1L172.9,105.5z M182.5,104.4c-0.5,0.1-1,0-1.5-0.1
				c-0.4-0.2-0.8-0.4-1.1-0.7c-0.3-0.3-0.5-0.7-0.6-1.2l1.2-0.4c0.1,0.3,0.2,0.6,0.4,0.8c0.2,0.2,0.4,0.4,0.6,0.5
				c0.3,0.1,0.5,0.1,0.9,0.1s0.6-0.1,0.8-0.3c0.2-0.2,0.4-0.3,0.4-0.6c0.1-0.2,0.1-0.5,0.1-0.8c-0.1-0.5-0.3-0.9-0.7-1.1
				s-0.9-0.3-1.7-0.2H181l-0.1-1.1h0.3c0.6-0.1,1.1-0.2,1.4-0.5c0.3-0.2,0.4-0.6,0.4-1s-0.2-0.7-0.5-0.9c-0.3-0.2-0.6-0.3-1.1-0.2
				c-0.3,0-0.5,0.1-0.7,0.3c-0.2,0.1-0.4,0.3-0.5,0.5S180,98,180,98.4l-1.2-0.1c0-0.7,0.2-1.4,0.7-1.8c0.4-0.5,1.1-0.8,1.9-0.9
				c0.6-0.1,1,0,1.5,0.1c0.4,0.1,0.8,0.4,1,0.7c0.3,0.3,0.4,0.7,0.5,1.1c0.1,0.5,0,0.9-0.2,1.3s-0.5,0.7-0.9,0.8
				c0.5,0.1,0.9,0.3,1.2,0.7c0.3,0.3,0.5,0.8,0.6,1.4c0.1,0.4,0,0.9-0.2,1.3s-0.5,0.8-0.9,1C183.6,104.1,183.1,104.3,182.5,104.4z
				 M187.4,103.7l-0.1-1.1l1.8-0.2l-0.7-5.9c-0.1,0.2-0.2,0.4-0.4,0.6s-0.4,0.3-0.6,0.4c-0.2,0.1-0.4,0.2-0.6,0.2l-0.2-1.3
				c0.3,0,0.5-0.1,0.8-0.3c0.2-0.2,0.5-0.3,0.6-0.6c0.2-0.2,0.3-0.5,0.3-0.7l1.3-0.2l0.9,7.6l1.6-0.2l0.1,1.1L187.4,103.7z"/>
			<path class="st2" d="M76.7,59l-24,3c-2.8,0.4-4.8,3-4.5,5.8l1.7,13.5c0.4,2.8,2.9,4.9,5.8,4.5l24-3c2.8-0.4,4.8-3,4.5-5.8
				l-1.7-13.5C82.1,60.7,79.5,58.7,76.7,59z"/>
			<path class="st2" d="M141,123.6L58.8,134c-1.2,0.1-2,1.2-1.9,2.4s1.2,2,2.4,1.9l82.3-10.4c1.2-0.2,2-1.2,1.9-2.4
				C143.3,124.3,142.2,123.5,141,123.6z"/>
			<path class="st2" d="M117,136.3l-57,7.2c-1.2,0.2-2,1.2-1.9,2.4s1.2,2,2.4,1.9l57-7.2c1.2-0.1,2-1.2,1.9-2.4
				C119.2,137,118.1,136.2,117,136.3z"/>
			<path class="st2" d="M195.1,65.9c-0.3-0.2-0.6-0.5-0.9-0.7c-0.2-0.1-0.3-0.3-0.5-0.4c1.8-2.5,2.7-5.2,2.3-8.3s-1.8-5.5-4.2-7.5
				c0.1-0.2,0.3-0.3,0.4-0.5c0.2-0.3,0.5-0.6,0.7-0.9l0,0l0,0c0,0,0,0,0.1,0.1c0.3,0.3,0.7,0.6,1,0.9c0.7,0.7,1.3,1.4,1.8,2.2
				c0.6,0.9,1.1,2,1.5,3c0.2,0.5,0.3,1,0.4,1.6c0,0.2,0.2,1.3,0.2,1.4c0,0.4,0.1,0.7,0,1.1c0,1-0.1,2-0.3,3
				c-0.2,0.7-0.4,1.4-0.7,2.1c-0.3,0.7-0.6,1.4-1.1,2C195.5,65.3,195.3,65.6,195.1,65.9L195.1,65.9L195.1,65.9z"/>
			<path class="st2" d="M189.4,52c0.4-0.5,0.7-1,1.1-1.4c1.6,1.3,2.7,2.9,3.3,4.9c0.8,3,0.2,5.7-1.6,8.2c-0.5-0.4-1-0.8-1.4-1.1
				c1.2-1.6,1.8-3.5,1.5-5.6C192,54.9,191.1,53.2,189.4,52L189.4,52z"/>
			<path class="st2" d="M189.3,61.4c-0.5-0.4-0.9-0.7-1.4-1.1c0.6-0.8,0.9-1.8,0.8-2.8c-0.1-1.1-0.6-1.9-1.5-2.6
				c0.4-0.5,0.7-1,1.1-1.4C190.7,55.2,191.3,58.9,189.3,61.4L189.3,61.4z"/>
		</g>
	</g>
</g>
<g>
	<g>
		<defs>
			<rect id="SVGID_5_" x="29" y="42" width="184" height="124"/>
		</defs>
		<clipPath id="SVGID_6_">
			<use xlink:href="#SVGID_5_"  style="overflow:visible;"/>
		</clipPath>
		<g class="st6">
			<path class="st7" d="M212.7,51.7l0.3,103.4c0,5.8-4.6,10.5-10.4,10.5l-163,0.4c-5.7,0-10.4-4.7-10.4-10.4L29,52.2
				c0-5.4,4.3-9.7,9.6-9.8L203,42C208.4,42,212.7,46.3,212.7,51.7L212.7,51.7z"/>
			<path class="st2" d="M45.2,118v-1.1H47V111c-0.1,0.2-0.3,0.4-0.5,0.5s-0.4,0.3-0.6,0.3c-0.2,0.1-0.5,0.1-0.7,0.1v-1.3
				c0.3,0,0.5-0.1,0.8-0.2s0.5-0.3,0.7-0.5s0.3-0.4,0.4-0.7h1.3v7.6H50v1.1L45.2,118L45.2,118z M52.3,118v-1
				c0.3-0.2,0.5-0.5,0.8-0.7s0.4-0.4,0.6-0.5c0.2-0.2,0.4-0.3,0.6-0.5c0.2-0.2,0.4-0.4,0.6-0.6c0.2-0.2,0.5-0.5,0.7-0.7
				s0.4-0.5,0.5-0.7c0.2-0.2,0.3-0.5,0.4-0.7c0.1-0.2,0.1-0.5,0.1-0.7c0-0.5-0.1-0.9-0.3-1.1c-0.2-0.3-0.6-0.4-1.1-0.4
				c-0.3,0-0.6,0.1-0.9,0.3c-0.2,0.2-0.4,0.4-0.5,0.7c-0.1,0.3-0.2,0.6-0.2,0.9l-1.2-0.2c0-0.6,0.1-1,0.4-1.5c0.3-0.4,0.6-0.8,1-1
				s0.9-0.4,1.4-0.4c0.6,0,1.1,0.1,1.5,0.3c0.4,0.2,0.7,0.5,0.9,0.9s0.3,0.9,0.3,1.4c0,0.4-0.1,0.8-0.2,1.2
				c-0.1,0.4-0.3,0.7-0.6,1.1c-0.2,0.3-0.5,0.7-0.8,1s-0.6,0.6-1,0.9c-0.3,0.3-0.7,0.6-1,0.9h3.8v1.1L52.3,118L52.3,118z
				 M63.3,118.1c-0.5,0-1-0.1-1.5-0.3c-0.4-0.2-0.8-0.5-1-0.9c-0.3-0.4-0.4-0.8-0.5-1.3l1.2-0.2c0,0.3,0.1,0.6,0.3,0.8
				s0.3,0.4,0.6,0.5c0.2,0.1,0.5,0.2,0.9,0.2s0.7-0.1,0.9-0.2s0.4-0.3,0.5-0.5s0.2-0.5,0.2-0.8c0-0.5-0.2-0.9-0.5-1.2
				c-0.3-0.2-0.9-0.4-1.6-0.4h-0.3v-1.1h0.3c0.6,0,1.1-0.1,1.5-0.3c0.3-0.2,0.5-0.5,0.5-1c0-0.4-0.1-0.7-0.4-0.9
				c-0.2-0.2-0.6-0.4-1-0.4c-0.3,0-0.5,0.1-0.8,0.2c-0.2,0.1-0.4,0.3-0.6,0.5c-0.1,0.2-0.2,0.5-0.3,0.8l-1.2-0.3
				c0.1-0.7,0.4-1.3,0.9-1.7c0.5-0.4,1.2-0.6,2-0.6c0.6,0,1,0.1,1.4,0.3c0.4,0.2,0.7,0.5,0.9,0.8c0.2,0.3,0.3,0.7,0.3,1.2
				s-0.1,0.9-0.4,1.3s-0.6,0.6-0.9,0.7c0.5,0.1,0.8,0.4,1.1,0.8c0.3,0.4,0.4,0.9,0.4,1.4c0,0.4-0.1,0.9-0.3,1.2
				c-0.2,0.4-0.6,0.7-1,0.9C64.4,118,63.9,118.1,63.3,118.1z M73,118v-1.9h-4.3v-1l4-5.8h1.7v5.6h1.1v1.2h-1.1v1.9
				C74.4,118,73,118,73,118z M70.2,114.9H73v-4.2L70.2,114.9z M85.3,118.1c-0.6,0-1.1-0.1-1.6-0.3c-0.4-0.2-0.8-0.5-1-0.9
				s-0.4-0.7-0.5-1.1l1.2-0.3c0,0.2,0.1,0.5,0.3,0.7c0.1,0.2,0.3,0.4,0.6,0.6c0.3,0.1,0.6,0.2,0.9,0.2s0.6-0.1,0.8-0.3
				c0.2-0.2,0.4-0.4,0.6-0.7c0.1-0.3,0.2-0.6,0.2-0.9s-0.1-0.7-0.2-0.9c-0.1-0.3-0.3-0.5-0.6-0.7c-0.2-0.2-0.5-0.3-0.9-0.3
				s-0.7,0.1-1,0.3c-0.3,0.2-0.5,0.5-0.6,0.8l-1.3-0.3v-4.8h5.3v1.2h-4v2.8c0.1-0.1,0.2-0.3,0.4-0.5c0.2-0.2,0.4-0.3,0.7-0.5
				c0.3-0.1,0.6-0.2,1-0.2s0.8,0.1,1.2,0.3c0.4,0.2,0.7,0.5,1,1c0.3,0.4,0.4,1,0.4,1.6s-0.1,1.1-0.4,1.6s-0.6,0.8-1.1,1.1
				C86.4,118,85.9,118.1,85.3,118.1z M94,118.1c-0.7,0-1.3-0.2-1.8-0.5c-0.5-0.4-0.8-0.9-1-1.5s-0.3-1.4-0.3-2.2
				c0-0.7,0.1-1.3,0.2-1.9s0.3-1.1,0.6-1.5c0.3-0.4,0.6-0.8,1-1s0.8-0.4,1.4-0.4c0.5,0,1,0.1,1.4,0.3c0.4,0.2,0.7,0.5,0.9,0.8
				c0.2,0.3,0.4,0.7,0.4,1l-1.2,0.3c-0.1-0.4-0.3-0.7-0.5-0.9c-0.3-0.2-0.6-0.4-1-0.4c-0.3,0-0.6,0.1-0.8,0.2
				c-0.2,0.1-0.4,0.3-0.6,0.6c-0.2,0.3-0.3,0.7-0.4,1.1s-0.1,1-0.1,1.6c0.1-0.3,0.3-0.6,0.5-0.8c0.2-0.2,0.5-0.4,0.8-0.6
				c0.3-0.1,0.6-0.2,0.9-0.2c0.5,0,1,0.1,1.4,0.3c0.4,0.2,0.7,0.6,1,1c0.2,0.4,0.3,1,0.3,1.6s-0.1,1-0.3,1.5c-0.2,0.4-0.6,0.8-1,1
				C95.2,118,94.6,118.1,94,118.1z M94,116.9c0.3,0,0.6-0.1,0.8-0.2c0.2-0.2,0.4-0.4,0.6-0.6c0.1-0.3,0.2-0.6,0.2-0.9
				s-0.1-0.6-0.2-0.9s-0.3-0.5-0.6-0.6c-0.2-0.2-0.6-0.2-0.9-0.2s-0.5,0.1-0.8,0.2s-0.5,0.3-0.7,0.6c-0.2,0.3-0.3,0.6-0.3,0.9
				s0.1,0.7,0.2,0.9c0.2,0.3,0.4,0.5,0.6,0.6C93.4,116.9,93.7,116.9,94,116.9z M100.4,118l3.4-7.6h-4.4v-1.2h5.8v1l-3.3,7.7
				L100.4,118L100.4,118z M110.6,118.1c-0.6,0-1.2-0.1-1.6-0.3c-0.5-0.2-0.8-0.5-1.1-0.9c-0.2-0.4-0.4-0.8-0.4-1.4
				c0-0.5,0.1-1,0.4-1.3c0.3-0.4,0.6-0.6,1.1-0.8c-0.4-0.2-0.7-0.5-0.9-0.8c-0.2-0.3-0.3-0.7-0.3-1.2s0.1-0.9,0.4-1.3
				c0.3-0.3,0.6-0.6,1-0.8c0.4-0.2,0.9-0.3,1.5-0.3c0.5,0,1,0.1,1.4,0.3c0.4,0.2,0.8,0.4,1.1,0.8c0.3,0.3,0.4,0.8,0.4,1.3
				c0,0.4-0.1,0.8-0.3,1.2c-0.2,0.3-0.5,0.6-0.9,0.8c0.5,0.2,0.8,0.4,1.1,0.8c0.3,0.4,0.4,0.8,0.4,1.3s-0.1,1-0.4,1.4
				c-0.2,0.4-0.6,0.7-1.1,0.9C111.8,118,111.2,118.1,110.6,118.1z M110.6,116.9c0.6,0,1-0.1,1.3-0.4s0.5-0.7,0.5-1.1
				c0-0.5-0.2-0.8-0.5-1.1c-0.3-0.3-0.7-0.4-1.3-0.4s-1,0.1-1.3,0.4s-0.5,0.6-0.5,1.1c0,0.4,0.2,0.8,0.5,1.1
				C109.6,116.8,110,116.9,110.6,116.9z M110.6,112.9c0.5,0,0.8-0.1,1.1-0.4c0.3-0.2,0.4-0.6,0.4-1s-0.1-0.8-0.4-1s-0.7-0.3-1.2-0.3
				s-0.9,0.1-1.1,0.3c-0.3,0.2-0.4,0.6-0.4,1s0.1,0.7,0.4,1C109.8,112.8,110.1,112.9,110.6,112.9z M123.8,109.1
				c0.7,0,1.3,0.2,1.8,0.6s0.8,0.9,1,1.5s0.3,1.4,0.3,2.2c0,0.9-0.1,1.7-0.4,2.4c-0.2,0.7-0.6,1.3-1.1,1.7s-1,0.6-1.7,0.6
				c-0.6,0-1-0.1-1.4-0.3c-0.4-0.2-0.7-0.5-0.9-0.8c-0.2-0.3-0.4-0.7-0.4-1l1.2-0.3c0.1,0.4,0.3,0.7,0.6,0.9
				c0.3,0.2,0.6,0.4,1.1,0.4c0.3,0,0.6-0.1,0.8-0.2c0.2-0.1,0.4-0.3,0.6-0.6c0.2-0.3,0.3-0.7,0.4-1.1c0.1-0.5,0.2-1,0.2-1.6
				c-0.1,0.3-0.3,0.6-0.5,0.8c-0.2,0.2-0.5,0.4-0.8,0.6c-0.3,0.1-0.6,0.2-0.9,0.2c-0.5,0-1-0.1-1.4-0.3c-0.4-0.2-0.7-0.6-1-1
				c-0.2-0.4-0.3-1-0.3-1.6s0.1-1.1,0.3-1.5c0.2-0.4,0.6-0.8,1-1.1C122.6,109.2,123.1,109.1,123.8,109.1z M123.7,110.2
				c-0.3,0-0.6,0.1-0.8,0.2c-0.2,0.2-0.4,0.4-0.6,0.6c-0.1,0.3-0.2,0.6-0.2,0.9s0.1,0.6,0.2,0.9s0.3,0.5,0.6,0.7
				c0.2,0.2,0.6,0.3,0.9,0.3s0.6-0.1,0.8-0.2c0.3-0.1,0.5-0.3,0.7-0.6c0.2-0.3,0.3-0.6,0.3-1c0-0.3,0-0.5-0.1-0.7s-0.2-0.4-0.4-0.6
				c-0.2-0.2-0.4-0.3-0.6-0.4C124.2,110.3,124,110.2,123.7,110.2z M129.1,118v-1.1h1.8V111c-0.1,0.2-0.3,0.4-0.5,0.5
				s-0.4,0.3-0.6,0.3c-0.2,0.1-0.5,0.1-0.7,0.1v-1.3c0.3,0,0.5-0.1,0.8-0.2s0.5-0.3,0.7-0.5s0.3-0.4,0.4-0.7h1.3v7.6h1.6v1.1
				L129.1,118L129.1,118z M139,118.1c-0.7,0-1.3-0.2-1.8-0.6s-0.8-1-1-1.6c-0.2-0.7-0.3-1.5-0.3-2.3s0.1-1.6,0.3-2.3
				c0.2-0.7,0.6-1.2,1-1.6c0.5-0.4,1.1-0.6,1.8-0.6s1.3,0.2,1.8,0.6s0.8,0.9,1,1.6s0.3,1.4,0.3,2.3c0,0.8-0.1,1.6-0.3,2.3
				c-0.2,0.7-0.5,1.2-1,1.6S139.7,118.1,139,118.1z M139,116.8c0.5,0,0.8-0.2,1.1-0.5s0.4-0.7,0.5-1.2s0.2-1,0.2-1.6
				c0-0.4,0-0.8-0.1-1.2c-0.1-0.4-0.2-0.7-0.3-1s-0.3-0.5-0.6-0.7c-0.2-0.2-0.5-0.3-0.8-0.3s-0.6,0.1-0.9,0.3
				c-0.2,0.2-0.4,0.4-0.5,0.7c-0.1,0.3-0.2,0.6-0.3,1s-0.1,0.8-0.1,1.2c0,0.6,0.1,1.1,0.2,1.6c0.1,0.5,0.3,0.9,0.6,1.2
				C138.2,116.7,138.5,116.8,139,116.8z M144.3,118v-1.1h1.8V111c-0.1,0.2-0.3,0.4-0.5,0.5s-0.4,0.3-0.6,0.3
				c-0.2,0.1-0.5,0.1-0.7,0.1v-1.3c0.3,0,0.5-0.1,0.8-0.2s0.5-0.3,0.7-0.5s0.3-0.4,0.4-0.7h1.3v7.6h1.6v1.1L144.3,118L144.3,118z
				 M155.4,118v-1c0.3-0.2,0.5-0.5,0.8-0.7c0.2-0.2,0.4-0.4,0.6-0.5c0.2-0.2,0.4-0.3,0.6-0.5c0.2-0.2,0.4-0.4,0.6-0.6
				c0.2-0.2,0.5-0.5,0.7-0.7s0.4-0.5,0.5-0.7c0.2-0.2,0.3-0.5,0.4-0.7s0.1-0.5,0.1-0.7c0-0.5-0.1-0.9-0.3-1.1
				c-0.2-0.3-0.6-0.4-1.1-0.4c-0.3,0-0.6,0.1-0.9,0.3c-0.2,0.2-0.4,0.4-0.5,0.7c-0.1,0.3-0.2,0.6-0.2,0.9l-1.2-0.2
				c0-0.6,0.1-1,0.4-1.5c0.3-0.4,0.6-0.8,1-1s0.9-0.4,1.4-0.4c0.6,0,1.1,0.1,1.5,0.3c0.4,0.2,0.7,0.5,0.9,0.9s0.3,0.9,0.3,1.4
				c0,0.4-0.1,0.8-0.2,1.2c-0.1,0.4-0.3,0.7-0.6,1.1c-0.2,0.3-0.5,0.7-0.8,1s-0.6,0.6-1,0.9c-0.3,0.3-0.7,0.6-1,0.9h3.8v1.1
				L155.4,118L155.4,118z M163.6,118v-1.1h1.8V111c-0.1,0.2-0.3,0.4-0.5,0.5s-0.4,0.3-0.6,0.3c-0.2,0.1-0.5,0.1-0.7,0.1v-1.3
				c0.3,0,0.5-0.1,0.8-0.2s0.5-0.3,0.7-0.5s0.3-0.4,0.4-0.7h1.3v7.6h1.6v1.1L163.6,118L163.6,118z M173.3,118.1
				c-0.5,0-1-0.1-1.5-0.3c-0.4-0.2-0.8-0.5-1-0.9c-0.3-0.4-0.4-0.8-0.5-1.3l1.2-0.2c0,0.3,0.1,0.6,0.3,0.8s0.3,0.4,0.6,0.5
				c0.2,0.1,0.5,0.2,0.9,0.2s0.7-0.1,0.9-0.2s0.4-0.3,0.5-0.5s0.2-0.5,0.2-0.8c0-0.5-0.2-0.9-0.5-1.2c-0.3-0.2-0.9-0.4-1.6-0.4h-0.3
				v-1.1h0.3c0.6,0,1.1-0.1,1.5-0.3c0.3-0.2,0.5-0.5,0.5-1c0-0.4-0.1-0.7-0.4-0.9c-0.2-0.2-0.6-0.4-1-0.4c-0.3,0-0.5,0.1-0.8,0.2
				c-0.2,0.1-0.4,0.3-0.6,0.5c-0.1,0.2-0.2,0.5-0.3,0.8l-1.2-0.3c0.1-0.7,0.4-1.3,0.9-1.7c0.5-0.4,1.2-0.6,2-0.6
				c0.6,0,1,0.1,1.4,0.3c0.4,0.2,0.7,0.5,0.9,0.8s0.3,0.7,0.3,1.2s-0.1,0.9-0.4,1.3c-0.3,0.4-0.6,0.6-0.9,0.7
				c0.5,0.1,0.8,0.4,1.1,0.8s0.4,0.9,0.4,1.4c0,0.4-0.1,0.9-0.3,1.2c-0.2,0.4-0.6,0.7-1,0.9C174.4,118,173.9,118.1,173.3,118.1z
				 M178.2,118v-1.1h1.8V111c-0.1,0.2-0.3,0.4-0.5,0.5s-0.4,0.3-0.6,0.3c-0.2,0.1-0.5,0.1-0.7,0.1v-1.3c0.3,0,0.5-0.1,0.8-0.2
				s0.5-0.3,0.7-0.5s0.3-0.4,0.4-0.7h1.3v7.6h1.6v1.1L178.2,118L178.2,118z"/>
			<path class="st2" d="M73.8,60.1l-24.2,0.1c-2.9,0-5.2,2.3-5.2,5.2V79c0,2.9,2.3,5.2,5.2,5.2l24.2-0.1c2.9,0,5.2-2.3,5.2-5.2V65.3
				C79,62.4,76.6,60.1,73.8,60.1z"/>
			<path class="st2" d="M129.7,132.1l-82.9,0.2c-1.2,0-2.2,1-2.2,2.2s1,2.2,2.2,2.2l82.9-0.2c1.2,0,2.2-1,2.2-2.2
				S130.9,132.1,129.7,132.1z"/>
			<path class="st2" d="M104.3,141.8L46.9,142c-1.2,0-2.2,1-2.2,2.2s1,2.2,2.2,2.2l57.4-0.2c1.2,0,2.2-1,2.2-2.2
				C106.4,142.7,105.5,141.7,104.3,141.8z"/>
			<path class="st2" d="M190.4,81.5c-0.3-0.3-0.5-0.5-0.8-0.8c-0.2-0.2-0.3-0.3-0.5-0.5c2.1-2.2,3.3-4.8,3.3-7.9s-1.1-5.7-3.3-7.9
				c0.1-0.1,0.3-0.3,0.5-0.4c0.3-0.3,0.5-0.5,0.8-0.8l0,0l0,0c0,0,0,0,0,0.1c0.3,0.3,0.6,0.7,0.9,1c0.6,0.7,1.1,1.5,1.5,2.4
				c0.5,1,0.9,2.1,1.1,3.2c0.1,0.5,0.1,1.1,0.2,1.6c0,0.2,0,1.4,0,1.4c0,0.4,0,0.7-0.1,1.1c-0.1,1-0.3,2-0.7,2.9
				c-0.2,0.7-0.6,1.3-0.9,2c-0.4,0.7-0.8,1.3-1.3,1.9C191,80.9,190.7,81.2,190.4,81.5L190.4,81.5L190.4,81.5z"/>
			<path class="st2" d="M186.6,66.9c0.4-0.4,0.8-0.9,1.3-1.3c1.5,1.5,2.4,3.2,2.6,5.3c0.4,3.1-0.5,5.7-2.6,8
				c-0.4-0.4-0.9-0.9-1.3-1.3c1.4-1.5,2.2-3.2,2.2-5.3C188.8,70.1,188,68.4,186.6,66.9L186.6,66.9z"/>
			<path class="st2" d="M185.3,76.2c-0.4-0.4-0.8-0.9-1.3-1.3c0.7-0.8,1.1-1.7,1.1-2.7c0-1.1-0.4-2-1.1-2.7c0.4-0.4,0.9-0.9,1.3-1.3
				C187.4,70.3,187.6,74,185.3,76.2L185.3,76.2z"/>
		</g>
	</g>
</g>
<path class="st2" d="M12,20h16c6.6,0,12,5.4,12,12v16c0,6.6-5.4,12-12,12H12C5.4,60,0,54.6,0,48V32C0,25.4,5.4,20,12,20z"/>
<path class="st8" d="M28,33H12c-1.1,0-2,0.9-2,2v10c0,1.1,0.9,2,2,2h16c1.1,0,2-0.9,2-2V35C30,33.9,29.1,33,28,33z"/>
<path class="st8" d="M10,38h20"/>
<path class="st2" d="M156,20h102.2c6.6,0,12,5.4,12,12v9c0,6.6-5.4,12-12,12H156c-6.6,0-12-5.4-12-12v-9C144,25.4,149.4,20,156,20z"
	/>
<path class="st9" d="M240.2,39.4v-2.7h3l0.3,0.4l0.3-0.4H255v2.5c0,0-0.3,0.2-0.6,0.2h-6.1l-0.4-0.4v0.4h-1.2v-0.7
	c0,0-0.2,0.1-0.5,0.1h-0.4v0.6H244l-0.3-0.4l-0.3,0.4C243.4,39.4,240.2,39.4,240.2,39.4z M236.7,34.6l0.7-1.5h1.2L239,34v-0.8h1.5
	l0.2,0.6l0.2-0.6h6.6v0.3c0,0,0.3-0.3,0.9-0.3h2.1l0.4,0.8v-0.8h1.2l0.3,0.5v-0.5h1.2v2.7h-1.2l-0.3-0.5v0.5h-1.8l-0.2-0.4h-0.5
	l-0.2,0.4h-1.2c-0.5,0-0.8-0.3-0.8-0.3v0.3h-1.9l-0.4-0.4v0.4h-6.9l-0.2-0.4h-0.5l-0.2,0.4h-0.8v-1.3H236.7z M236.7,35.5l0.9-2h0.7
	l0.9,2h-0.6l-0.2-0.4h-1l-0.2,0.4H236.7z M238.3,34.6l-0.3-0.7l-0.3,0.7H238.3z M239.3,35.5v-2h0.9l0.5,1.3l0.5-1.3h0.8v2h-0.5V34
	l-0.6,1.5h-0.5l-0.6-1.5v1.5H239.3z M242.4,35.5v-2h1.8V34H243v0.3h1.2v0.4H243V35h1.2v0.4L242.4,35.5L242.4,35.5z M244.4,35.5v-2
	h1.2c0.4,0,0.8,0.2,0.8,0.7c0,0.4-0.3,0.6-0.6,0.6l0.7,0.7h-0.7l-0.6-0.7H245v0.7H244.4z M245.6,33.9H245v0.4h0.6
	c0.1,0,0.2-0.1,0.2-0.2S245.7,33.9,245.6,33.9z M247.1,35.5h-0.5v-2h0.5V35.5z M248.4,35.5h-0.1c-0.6,0-0.9-0.4-0.9-1s0.3-1,1.1-1
	h0.6V34h-0.6c-0.3,0-0.5,0.2-0.5,0.5c0,0.4,0.2,0.6,0.6,0.6h0.1L248.4,35.5z M248.7,35.5l0.9-2h0.7l0.9,2h-0.6l-0.2-0.4h-1l-0.2,0.4
	H248.7z M250.3,34.6l-0.3-0.7l-0.3,0.7H250.3z M251.3,35.5v-2h0.7l0.9,1.3v-1.3h0.5v2h-0.7l-0.9-1.3v1.3H251.3z M240.6,39v-2h1.8
	v0.5h-1.2v0.3h1.2v0.4h-1.2v0.4h1.2V39H240.6z M249.2,39v-2h1.8v0.5h-1.2v0.3h1.2v0.4h-1.2v0.4h1.2V39H249.2z M242.4,39l0.9-1
	l-0.9-1h0.7l0.5,0.6l0.5-0.6h0.7l-0.9,1l0.9,1h-0.7l-0.5-0.6l-0.5,0.6H242.4z M244.8,39v-2h1.2c0.5,0,0.8,0.3,0.8,0.7
	c0,0.5-0.4,0.7-0.8,0.7h-0.6V39H244.8z M246,37.5h-0.6V38h0.6c0.2,0,0.3-0.1,0.3-0.2C246.2,37.5,246.1,37.5,246,37.5z M247,39v-2
	h1.2c0.4,0,0.8,0.2,0.8,0.7c0,0.4-0.3,0.6-0.6,0.6l0.7,0.7h-0.7l-0.6-0.7h-0.2V39H247z M248.2,37.5h-0.6v0.4h0.6
	c0.1,0,0.2-0.1,0.2-0.2S248.3,37.5,248.2,37.5z M251.2,39v-0.4h1.1c0.2,0,0.2-0.1,0.2-0.2c0-0.1-0.1-0.2-0.2-0.2h-0.5
	c-0.4,0-0.7-0.2-0.7-0.6c0-0.3,0.2-0.6,0.8-0.6h1l-0.2,0.5h-0.9c-0.2,0-0.2,0.1-0.2,0.2c0,0.1,0.1,0.2,0.2,0.2h0.5
	c0.5,0,0.7,0.3,0.7,0.6c0,0.4-0.2,0.6-0.7,0.6L251.2,39L251.2,39z M253.1,39v-0.4h1.1c0.2,0,0.2-0.1,0.2-0.2c0-0.1-0.1-0.2-0.2-0.2
	h-0.5c-0.4,0-0.7-0.2-0.7-0.6c0-0.3,0.2-0.6,0.8-0.6h1l-0.2,0.5h-0.9c-0.2,0-0.2,0.1-0.2,0.2c0,0.1,0.1,0.2,0.2,0.2h0.5
	c0.5,0,0.7,0.3,0.7,0.6c0,0.4-0.2,0.6-0.7,0.6L253.1,39L253.1,39z"/>
<path class="st7" d="M214,34.7c0.2-0.1,0.4-0.1,0.6-0.1c0.9,0,1.7,0.7,1.9,1.5l1.3-0.3c-0.3-1.5-1.6-2.6-3.2-2.6
	c-0.4,0-0.7,0.1-1.1,0.2L214,34.7z"/>
<path class="st7" d="M212.4,39l0.8-1c-0.4-0.4-0.6-0.9-0.6-1.5s0.2-1.1,0.6-1.5l-0.8-1c-0.6,0.6-1,1.5-1,2.5S211.8,38.4,212.4,39z"
	/>
<path class="st7" d="M216.5,36.9c-0.2,0.9-1,1.5-1.9,1.5c-0.2,0-0.4,0-0.6-0.1l-0.4,1.3c0.3,0.1,0.7,0.2,1.1,0.2
	c1.6,0,2.9-1.1,3.2-2.6L216.5,36.9z"/>
<path class="st9" d="M224.3,34v3.7L225,38l-0.3,0.7l-0.7-0.3c-0.1-0.1-0.2-0.2-0.3-0.3s-0.1-0.3-0.1-0.5V34H224.3z M219.3,36.7
	c0-1.1,0.9-1.9,2-1.9c0.9,0,1.7,0.6,1.9,1.5l-3.6,1.5C219.4,37.5,219.3,37.1,219.3,36.7z M220.1,36.9L220.1,36.9
	c0-0.7,0.5-1.2,1.2-1.2c0.3,0,0.7,0.2,0.9,0.4L220.1,36.9z M222.1,37.6c-0.2,0.2-0.5,0.3-0.8,0.3c-0.2,0-0.4-0.1-0.6-0.2l-0.4,0.7
	c0.3,0.2,0.6,0.3,1,0.3c0.5,0,1-0.2,1.4-0.5L222.1,37.6z M227.1,35.6c-0.1,0-0.3,0-0.4,0.1l-0.3-0.7c0.2-0.1,0.4-0.1,0.6-0.1
	c1,0,1.7,0.7,1.9,1.5l-0.8,0.2C228.1,36,227.6,35.6,227.1,35.6z M225.8,38.2l0.5-0.6c-0.2-0.2-0.4-0.5-0.4-0.8s0.2-0.6,0.4-0.8
	l-0.5-0.6c-0.4,0.3-0.7,0.9-0.7,1.4C225.1,37.3,225.4,37.8,225.8,38.2z M227.1,37.9c0.6,0,1-0.4,1.1-0.9l0.8,0.2
	c-0.2,0.9-1,1.5-1.9,1.5c-0.2,0-0.4,0-0.6-0.1l0.3-0.7C226.8,37.9,226.9,37.9,227.1,37.9z"/>
<path class="st7" d="M193,39.2h-1.4l0.8-4.9h1.4L193,39.2z"/>
<path class="st7" d="M197.9,34.4c-0.3-0.1-0.7-0.2-1.2-0.2c-1.3,0-2.3,0.7-2.3,1.6c0,0.7,0.7,1.1,1.2,1.3s0.7,0.4,0.7,0.6
	c0,0.3-0.4,0.5-0.8,0.5c-0.5,0-0.8-0.1-1.3-0.3l-0.2-0.1l-0.2,1.1c0.3,0.1,0.9,0.3,1.5,0.3c1.4,0,2.4-0.7,2.4-1.7
	c0-0.6-0.4-1-1.1-1.3c-0.5-0.2-0.8-0.4-0.8-0.6c0-0.2,0.2-0.4,0.8-0.4c0.4,0,0.8,0.1,1,0.2l0.1,0.1L197.9,34.4z"/>
<path class="st9" d="M200.4,34.2h1.1l1.1,4.9h-1.3c0,0-0.1-0.6-0.2-0.7h-1.7l-0.3,0.7h-1.4l2-4.5C199.8,34.3,200,34.2,200.4,34.2z
	 M200.3,36c0,0-0.4,1.1-0.5,1.4h1.1c-0.1-0.2-0.3-1.4-0.3-1.4l-0.1-0.4C200.5,35.7,200.4,35.9,200.3,36C200.3,36,200.3,36,200.3,36z
	"/>
<path class="st9" d="M189.2,37.6l1.3-3.4h1.4l-2.1,4.9h-1.4l-1.2-4.3c-0.4-0.2-0.9-0.4-1.4-0.5v-0.1h2.2c0.3,0,0.5,0.1,0.6,0.4
	l0.5,2.3l0,0L189.2,37.6z"/>
<g class="st10">
	<path class="st5" d="M170.6,40.3h-4.4v-7.9h4.4V40.3z"/>
</g>
<path class="st7" d="M166.5,36.4c0-1.6,0.8-3,1.9-3.9c-0.9-0.7-1.9-1.1-3.1-1.1c-2.8,0-5,2.2-5,5s2.3,5,5,5c1.2,0,2.3-0.4,3.1-1.1
	C167.2,39.4,166.5,38,166.5,36.4z"/>
<path class="st7" d="M176.5,36.4c0,2.8-2.3,5-5,5c-1.2,0-2.3-0.4-3.1-1.1c1.2-0.9,1.9-2.3,1.9-3.9c0-1.6-0.8-3-1.9-3.9
	c0.9-0.7,1.9-1.1,3.1-1.1C174.3,31.4,176.5,33.6,176.5,36.4z"/>
</svg>
