<?xml version="1.0" encoding="utf-8"?>
<!-- Generator: Adobe Illustrator 24.0.2, SVG Export Plug-In . SVG Version: 6.00 Build 0)  -->
<svg version="1.1" id="Camada_1" xmlns="http://www.w3.org/2000/svg" xmlns:xlink="http://www.w3.org/1999/xlink" x="0px" y="0px"
	 viewBox="0 0 286 166" style="enable-background:new 0 0 286 166;" xml:space="preserve">
<style type="text/css">
	.st0{clip-path:url(#SVGID_2_);}
	.st1{fill:#11286B;}
	.st2{fill:#263238;}
	.st3{fill:none;stroke:#FFBD00;stroke-width:2;}
	.st4{fill:#FFBD00;}
	.st5{fill:none;stroke:#11286B;stroke-width:2;stroke-linecap:round;stroke-linejoin:round;}
	.st6{fill:#FDFAFF;}
</style>
<g>
	<g>
		<defs>
			<rect id="SVGID_1_" x="54" width="204" height="166"/>
		</defs>
		<clipPath id="SVGID_2_">
			<use xlink:href="#SVGID_1_"  style="overflow:visible;"/>
		</clipPath>
		<g class="st0">
			<path class="st1" d="M221.8,0H90.2C70.2,0,54,16.2,54,36.1v347.8c0,19.9,16.2,36.1,36.2,36.1h131.6c20,0,36.2-16.2,36.2-36.1
				V36.1C258,16.2,241.8,0,221.8,0z M249.1,383.9c0,15-12.2,27.2-27.3,27.2H90.2c-15.1,0-27.3-12.2-27.3-27.2V36.1
				c0-15,12.2-27.2,27.3-27.2h18.2c1.9,0,3.6,0.9,4.7,2.4l4.5,6.1c2,2.8,5.3,4.4,8.7,4.4h59.3c3.4,0,6.7-1.6,8.7-4.4l4.5-6.1
				c1.1-1.5,2.9-2.4,4.7-2.4h18.2c15.1,0,27.3,12.2,27.3,27.2v347.8H249.1z"/>
			<path class="st2" d="M118.4,108.6v4.1h4.1v-4.1v-4.1h-4.1V108.6z"/>
			<path class="st2" d="M122.5,84h-4.1v4.1h4.1V84z"/>
			<path class="st2" d="M147.7,129.1h-4.1v4.1h4.1V129.1z"/>
			<path class="st2" d="M122.5,92.2v4.1h-4.1v4.1h4.1v4.1h4.1h4.1v4.1h4.1v-4.1h4.1v-4.1v-4.1h-4.1v4.1h-4.1h-4.1v-4.1v-4.1v-4.1
				h-4.1V92.2z"/>
			<path class="st2" d="M130.6,84h-4.1v4.1h4.1h4.1V84H130.6z"/>
			<path class="st2" d="M149,116.9h2.2v-4.1H149h-2.2v4.1H149z"/>
			<path class="st2" d="M138.8,88.1h-4.1v4.1h4.1V88.1z"/>
			<path class="st2" d="M167.3,104.5h-4.1v4.1h4.1V104.5z"/>
			<path class="st2" d="M171.4,59.5h-4.1v4.1h4.1V59.5z"/>
			<path class="st2" d="M147,92.2v-4.1h4.1V84H147v-4.1h-4.1V84h-4.1v4.1h4.1v4.1v4.1v4.1v4.1h4.1v-4.1v-4.1h4.1v-4.1H147z"/>
			<path class="st2" d="M167.3,133.2h4.1v-4.1h-4.1h-4.1v4.1H167.3z"/>
			<path class="st2" d="M163.3,59.5h-4.1v4.1h4.1V59.5z"/>
			<path class="st2" d="M162.2,92.2v-4.1h-4.1V84H154v4.1v4.1h-4v4.1h4.1h4.1v-4.1H162.2z"/>
			<path class="st2" d="M185.2,84h-4.1v4.1h4.1V84z"/>
			<path class="st2" d="M143,104.5h-4.1v4.1h4.1V104.5z"/>
			<path class="st2" d="M159.2,79.9v-4.1h4.1v-4.1h4.1h4.1v-4.1h-4.1v-4.1h-4.1v4.1h-4.1v4.1h-4.1v4.1H151v4.1h4.1H159.2z"/>
			<path class="st2" d="M159.2,108.6v-4.1h4.1v-4.1h-4.1h-4.1v4.1H151v4.1h4.1H159.2z"/>
			<path class="st2" d="M171.4,125v-4.1h-4.1h-4.1v-4.1h-4.1v4.1H155v4.1h-4h-4.1v4.1h4.1h4.1h4.1V125h4.1v4.1h4.1V125H171.4z"/>
			<path class="st2" d="M155.1,63.6v-4.1H151h-4.1v4.1h-4.1v4.1h4.1h4.1v-4.1H155.1z"/>
			<path class="st2" d="M155.1,67.7H151v4.1h4.1V67.7z"/>
			<path class="st2" d="M165.3,84h-4.1v4.1v4.1v4.1h4.1h4.1v-4.1h-4.1v-4.1h4.1V84h4.1v-4.1h-4.1v-4.1h-4.1v4.1V84z"/>
			<path class="st2" d="M151,71.7h-4.1v4.1h4.1V71.7z"/>
			<path class="st2" d="M163.3,112.7v4.1h4.1h4.1v-4.1h4.1h4.1v-4.1h-4.1h-4.1h-4.1v4.1H163.3z"/>
			<path class="st2" d="M185.2,96.3h-4.1v4.1h4.1V96.3z"/>
			<path class="st2" d="M171.4,100.4h-4.1v4.1h4.1V100.4z"/>
			<path class="st2" d="M181.6,88.1h-4.1h-4.1v4.1h4.1v4.1h4.1v-4.1V88.1z"/>
			<path class="st2" d="M179.6,100.4h-4.1v4.1h4.1V100.4z"/>
			<path class="st2" d="M134.7,125H147v-16.5h-16.4v4.1h-4v4.1h4v4.1h-4v4.1h4v0.1h0.1v4h-4.1v8.2h4.1v-4.1h4.1V125H134.7z
				 M143.8,111.7V122h-10.2v-10.2h10.2V111.7z"/>
			<path class="st2" d="M187.7,108.6h4.1v-4.1h-4.1h-4.1h-4.1v4.1h4.1H187.7z"/>
			<path class="st2" d="M187.7,92.2h4.1v-4.1V84h-4.1v4.1V92.2z"/>
			<path class="st2" d="M155.3,112.8h-4.1v4.1v4.1h4.1v-4.1V112.8z"/>
			<path class="st2" d="M195.9,108.6h-4.1v4.1h4.1V108.6z"/>
			<path class="st2" d="M195.9,100.4v-4.1h-4.1v4.1v4.1h4.1V100.4z"/>
			<path class="st2" d="M122.5,129.1h-4.1v4.1v4.1h4.1v-4.1V129.1z"/>
			<path class="st2" d="M195.9,79.9V59.5h-20.4V80L195.9,79.9L195.9,79.9z M178.5,76.9V62.5h14.3v14.3L178.5,76.9L178.5,76.9z"/>
			<path class="st2" d="M189.7,65.6h-8.2v8.2h8.2V65.6z"/>
			<path class="st2" d="M195.9,116.8h-20.4v20.5h20.4V116.8z M178.5,134.2v-14.3h14.3v14.3H178.5z"/>
			<path class="st2" d="M189.7,122.9h-8.2v8.2h8.2V122.9z"/>
			<path class="st2" d="M118.4,59.5V80h20.4V59.5H118.4z M135.7,62.5v14.3h-14.3V62.5H135.7z"/>
			<path class="st2" d="M132.6,65.6h-8.2v8.2h8.2V65.6z"/>
			<path class="st3" d="M104.1,69.4v-17c0-1.6,0.3-3.1,1.3-4.3c1.2-1.4,2.9-1.9,4.6-1.9h17.8c0.7,0,0.7-1.1,0-1.1h-17.6
				c-1.5,0-3,0.2-4.3,1.1c-1.9,1.2-3,3.3-3,5.6c-0.1,2.8,0,5.6,0,8.4v9.3C103,70.1,104.1,70.1,104.1,69.4z"/>
			<path class="st3" d="M127.3,151.4h-17c-1.6,0-3.1-0.3-4.3-1.3c-1.4-1.2-1.9-2.9-1.9-4.7v-17.9c0-0.7-1.1-0.7-1.1,0v17.7
				c0,1.5,0.2,3,1.1,4.3c1.2,1.9,3.3,3,5.6,3c2.8,0.1,5.6,0,8.4,0h9.3C128,152.5,128,151.4,127.3,151.4L127.3,151.4z"/>
			<path class="st3" d="M209.3,128.5v17c0,1.6-0.3,3.1-1.3,4.3c-1.2,1.4-2.9,1.9-4.6,1.9h-17.8c-0.7,0-0.7,1.1,0,1.1h17.6
				c1.5,0,3-0.2,4.3-1.1c1.9-1.2,3-3.3,3-5.6c0.1-2.8,0-5.6,0-8.4v-9.3C210.4,127.8,209.3,127.8,209.3,128.5L209.3,128.5z"/>
			<path class="st3" d="M185.5,46.1h17c1.6,0,3.1,0.3,4.3,1.3c1.4,1.2,1.9,2.9,1.9,4.7V70c0,0.7,1.1,0.7,1.1,0V52.3
				c0-1.5-0.2-3-1.1-4.3c-1.2-1.9-3.3-3-5.6-3c-2.8-0.1-5.6,0-8.4,0h-9.3C184.8,45,184.8,46.1,185.5,46.1L185.5,46.1z"/>
		</g>
	</g>
</g>
<path class="st4" d="M258,34h16c6.6,0,12,5.4,12,12v16c0,6.6-5.4,12-12,12h-16c-6.6,0-12-5.4-12-12V46C246,39.4,251.4,34,258,34z"/>
<path class="st5" d="M266,44v20"/>
<path class="st5" d="M271,47h-7.5c-0.9,0-1.8,0.4-2.5,1c-0.7,0.7-1,1.5-1,2.5s0.4,1.8,1,2.5c0.7,0.7,1.5,1,2.5,1h5
	c0.9,0,1.8,0.4,2.5,1c0.7,0.7,1,1.5,1,2.5s-0.4,1.8-1,2.5c-0.7,0.7-1.5,1-2.5,1H260"/>
<path class="st6" d="M12,79h97c6.6,0,12,5.4,12,12v30c0,6.6-5.4,12-12,12H12c-6.6,0-12-5.4-12-12V91C0,84.4,5.4,79,12,79z"/>
<path class="st5" d="M24,116c5.5,0,10-4.5,10-10s-4.5-10-10-10s-10,4.5-10,10S18.5,116,24,116z"/>
<path class="st5" d="M24,100v6l4,2"/>
<path class="st2" d="M44.9,103v-8.3h2.7c0.9,0,1.7,0.2,2.3,0.5c0.7,0.3,1.2,0.8,1.5,1.5c0.4,0.6,0.6,1.4,0.6,2.2
	c0,0.9-0.2,1.6-0.6,2.2c-0.4,0.6-0.9,1.1-1.5,1.4c-0.7,0.3-1.4,0.5-2.3,0.5C47.6,103,44.9,103,44.9,103z M46.3,101.9h1.4
	c1,0,1.7-0.3,2.2-0.8s0.8-1.3,0.8-2.2c0-1-0.3-1.7-0.8-2.3c-0.5-0.6-1.3-0.8-2.2-0.8h-1.4V101.9z M56.3,103.1
	c-0.6,0-1.2-0.1-1.7-0.4s-0.9-0.7-1.2-1.2s-0.4-1.1-0.4-1.8c0-0.7,0.1-1.3,0.4-1.8c0.3-0.5,0.7-0.9,1.2-1.2c0.5-0.3,1.1-0.4,1.7-0.4
	c0.6,0,1.2,0.1,1.7,0.4s0.9,0.7,1.2,1.2s0.5,1.1,0.5,1.8c0,0.7-0.2,1.3-0.5,1.8s-0.7,0.9-1.2,1.2S56.9,103.1,56.3,103.1z
	 M56.3,101.9c0.3,0,0.7-0.1,1-0.2c0.3-0.2,0.6-0.4,0.8-0.7c0.2-0.3,0.3-0.7,0.3-1.2s-0.1-0.9-0.3-1.2c-0.2-0.3-0.4-0.6-0.7-0.7
	c-0.3-0.2-0.6-0.2-1-0.2c-0.3,0-0.7,0.1-1,0.2c-0.3,0.2-0.5,0.4-0.7,0.7c-0.2,0.3-0.3,0.7-0.3,1.2s0.1,0.9,0.3,1.2
	c0.2,0.3,0.4,0.6,0.7,0.7C55.6,101.8,55.9,101.9,56.3,101.9z M63.7,103.1c-0.6,0-1.1-0.1-1.6-0.4s-0.8-0.7-1.1-1.2s-0.4-1.1-0.4-1.8
	c0-0.7,0.1-1.3,0.4-1.8c0.3-0.5,0.7-0.9,1.1-1.2c0.5-0.3,1-0.4,1.6-0.4c0.5,0,1,0.1,1.4,0.4s0.7,0.6,0.9,1.1v-1.4h1.4v6.6h-0.6
	c-0.2,0-0.4-0.1-0.6-0.2c-0.1-0.1-0.2-0.3-0.2-0.6v-0.7c-0.2,0.5-0.5,0.8-0.9,1.1C64.7,102.9,64.2,103.1,63.7,103.1z M64,101.9
	c0.3,0,0.7-0.1,1-0.3s0.6-0.4,0.7-0.7c0.2-0.3,0.3-0.7,0.3-1.2s-0.1-0.9-0.3-1.2c-0.2-0.3-0.4-0.6-0.7-0.7c-0.3-0.2-0.6-0.3-1-0.3
	c-0.3,0-0.7,0.1-1,0.3c-0.3,0.2-0.6,0.4-0.7,0.7c-0.2,0.3-0.3,0.7-0.3,1.2s0.1,0.9,0.3,1.2c0.2,0.3,0.4,0.6,0.7,0.7
	C63.4,101.8,63.7,101.9,64,101.9z M72,103.1c-0.6,0-1.2-0.1-1.7-0.4s-0.9-0.7-1.2-1.2c-0.3-0.5-0.4-1.1-0.4-1.8
	c0-0.7,0.1-1.3,0.4-1.8s0.7-0.9,1.2-1.2c0.5-0.3,1-0.4,1.7-0.4c0.4,0,0.7,0,1,0.1s0.6,0.2,0.8,0.4c0.2,0.2,0.5,0.4,0.6,0.6
	c0.2,0.2,0.3,0.5,0.5,0.9l-1.3,0.4c-0.2-0.4-0.4-0.7-0.6-0.9c-0.3-0.2-0.6-0.3-1-0.3s-0.7,0.1-1,0.3c-0.3,0.2-0.5,0.4-0.6,0.8
	c-0.2,0.3-0.2,0.7-0.2,1.2s0.1,0.9,0.2,1.2s0.4,0.6,0.6,0.8c0.3,0.2,0.6,0.3,1,0.3c0.5,0,0.8-0.1,1.1-0.4c0.3-0.3,0.5-0.6,0.6-1
	L75,101c-0.1,0.4-0.3,0.8-0.6,1.1c-0.3,0.3-0.6,0.6-1,0.8C73.1,103,72.6,103.1,72,103.1z M70.8,106.1v-0.9h1.3c0.2,0,0.4,0,0.5-0.1
	s0.2-0.2,0.2-0.3c0-0.2-0.1-0.3-0.2-0.4s-0.3-0.1-0.5-0.1h-0.7v-1.5h0.9v0.7c0.3,0,0.6,0,0.8,0.1c0.2,0.1,0.4,0.2,0.6,0.4
	c0.1,0.2,0.2,0.4,0.2,0.7c0,0.3-0.1,0.5-0.2,0.7s-0.3,0.4-0.6,0.5c-0.2,0.1-0.5,0.2-0.8,0.2L70.8,106.1L70.8,106.1z M79,103.1
	c-0.6,0-1.1-0.1-1.6-0.4s-0.8-0.7-1.1-1.2c-0.3-0.5-0.4-1.1-0.4-1.8c0-0.7,0.1-1.3,0.4-1.8s0.7-0.9,1.1-1.2c0.5-0.3,1-0.4,1.6-0.4
	c0.5,0,1,0.1,1.4,0.4s0.7,0.6,0.9,1.1v-1.4h1.4v6.6h-0.6c-0.2,0-0.4-0.1-0.6-0.2c-0.1-0.1-0.2-0.3-0.2-0.6v-0.7
	c-0.2,0.5-0.5,0.8-0.9,1.1C80,102.9,79.6,103.1,79,103.1z M79.3,101.9c0.3,0,0.7-0.1,1-0.3s0.6-0.4,0.7-0.7c0.2-0.3,0.3-0.7,0.3-1.2
	s-0.1-0.9-0.3-1.2c-0.2-0.3-0.4-0.6-0.7-0.7c-0.3-0.2-0.6-0.3-1-0.3c-0.3,0-0.7,0.1-1,0.3c-0.3,0.2-0.6,0.4-0.7,0.7
	c-0.2,0.3-0.3,0.7-0.3,1.2s0.1,0.9,0.3,1.2c0.2,0.3,0.4,0.6,0.7,0.7C78.7,101.8,79,101.9,79.3,101.9z M80.3,95.7
	c-0.2,0-0.4,0-0.6-0.1c-0.1-0.1-0.3-0.2-0.4-0.3c-0.1-0.1-0.3-0.1-0.4-0.1s-0.2,0-0.3,0.1c-0.1,0.1-0.2,0.2-0.2,0.4h-0.8
	c0.1-0.5,0.2-0.8,0.5-1.1c0.2-0.2,0.5-0.3,0.9-0.3c0.2,0,0.4,0,0.5,0.1c0.2,0.1,0.3,0.2,0.4,0.3s0.3,0.1,0.4,0.1s0.2,0,0.3-0.1
	c0.1-0.1,0.2-0.2,0.2-0.4h0.8c-0.1,0.5-0.2,0.8-0.5,1.1C80.9,95.6,80.6,95.7,80.3,95.7z M87.4,103.1c-0.6,0-1.2-0.1-1.7-0.4
	s-0.9-0.7-1.2-1.2c-0.3-0.5-0.4-1.1-0.4-1.8c0-0.7,0.1-1.3,0.4-1.8s0.7-0.9,1.2-1.2s1.1-0.4,1.7-0.4s1.2,0.1,1.7,0.4
	s0.9,0.7,1.2,1.2c0.3,0.5,0.5,1.1,0.5,1.8c0,0.7-0.2,1.3-0.5,1.8s-0.7,0.9-1.2,1.2C88.6,102.9,88,103.1,87.4,103.1z M87.4,101.9
	c0.3,0,0.7-0.1,1-0.2c0.3-0.2,0.6-0.4,0.8-0.7c0.2-0.3,0.3-0.7,0.3-1.2s-0.1-0.9-0.3-1.2c-0.2-0.3-0.4-0.6-0.7-0.7
	c-0.3-0.2-0.6-0.2-1-0.2c-0.3,0-0.7,0.1-1,0.2c-0.3,0.2-0.5,0.4-0.7,0.7c-0.2,0.3-0.3,0.7-0.3,1.2s0.1,0.9,0.3,1.2
	c0.2,0.3,0.4,0.6,0.7,0.7C86.7,101.8,87,101.9,87.4,101.9z M47.5,118.1c-0.6,0-1.1-0.1-1.6-0.4s-0.8-0.7-1.1-1.2s-0.4-1.1-0.4-1.8
	c0-0.7,0.1-1.3,0.4-1.8c0.3-0.5,0.7-0.9,1.1-1.2c0.5-0.3,1-0.4,1.6-0.4c0.5,0,1,0.1,1.4,0.4s0.7,0.6,0.9,1.1v-1.4h1.4v6.6h-0.6
	c-0.2,0-0.4-0.1-0.6-0.2c-0.1-0.1-0.2-0.3-0.2-0.6v-0.7c-0.2,0.5-0.5,0.8-0.9,1.1C48.6,117.9,48.1,118.1,47.5,118.1z M47.9,116.9
	c0.3,0,0.7-0.1,1-0.3c0.3-0.2,0.6-0.4,0.7-0.7c0.2-0.3,0.3-0.7,0.3-1.2s-0.1-0.9-0.3-1.2c-0.2-0.3-0.4-0.6-0.7-0.7
	c-0.3-0.2-0.6-0.3-1-0.3c-0.3,0-0.7,0.1-1,0.3c-0.3,0.2-0.6,0.4-0.7,0.7c-0.2,0.3-0.3,0.7-0.3,1.2s0.1,0.9,0.3,1.2
	c0.2,0.3,0.4,0.6,0.7,0.7C47.2,116.8,47.5,116.9,47.9,116.9z M56.1,121.2c-0.5,0-1-0.1-1.5-0.3c-0.4-0.2-0.8-0.4-1.2-0.7
	c-0.3-0.3-0.6-0.7-0.7-1.2l1.2-0.5c0.2,0.5,0.5,0.8,0.9,1.1c0.4,0.3,0.8,0.4,1.3,0.4c0.4,0,0.7-0.1,1-0.2s0.5-0.4,0.7-0.6
	s0.2-0.6,0.2-1.1v-1.5c-0.2,0.5-0.5,0.8-0.9,1.1c-0.4,0.3-0.9,0.4-1.4,0.4c-0.6,0-1.1-0.1-1.6-0.4s-0.8-0.7-1.1-1.2
	s-0.4-1.1-0.4-1.8c0-0.7,0.1-1.3,0.4-1.8c0.3-0.5,0.7-0.9,1.1-1.2c0.5-0.3,1-0.4,1.6-0.4c0.5,0,1,0.1,1.4,0.4s0.7,0.6,0.9,1.1v-1.4
	h1.4v6.7c0,0.5-0.1,0.9-0.2,1.3c-0.1,0.4-0.4,0.7-0.6,1c-0.3,0.3-0.6,0.5-1,0.6C57.1,121.1,56.6,121.2,56.1,121.2z M56,116.9
	c0.3,0,0.7-0.1,1-0.3c0.3-0.2,0.6-0.4,0.7-0.7c0.2-0.3,0.3-0.7,0.3-1.2s-0.1-0.9-0.3-1.2c-0.2-0.3-0.4-0.6-0.7-0.7
	c-0.3-0.2-0.6-0.3-1-0.3c-0.3,0-0.7,0.1-1,0.3c-0.3,0.2-0.6,0.4-0.7,0.7c-0.2,0.3-0.3,0.7-0.3,1.2s0.1,0.9,0.3,1.2
	c0.2,0.3,0.4,0.6,0.7,0.7C55.3,116.8,55.6,116.9,56,116.9z M64.2,118.1c-0.5,0-1-0.1-1.5-0.3c-0.4-0.2-0.8-0.4-1.1-0.7
	c-0.3-0.3-0.5-0.7-0.7-1.1s-0.2-0.9-0.2-1.3c0-0.5,0.1-1,0.3-1.4s0.4-0.8,0.8-1.1c0.3-0.3,0.7-0.5,1.1-0.7c0.4-0.2,0.9-0.2,1.3-0.2
	s0.8,0.1,1.1,0.2s0.6,0.3,0.9,0.5s0.5,0.4,0.6,0.7c0.1,0.3,0.2,0.5,0.2,0.9s-0.1,0.8-0.4,1.1s-0.6,0.5-1,0.7s-0.8,0.3-1.3,0.3
	c-0.5,0.1-1,0.1-1.4,0c-0.1,0-0.2,0-0.3,0s-0.2,0-0.3,0s-0.1,0-0.1,0c0.1,0.3,0.2,0.5,0.4,0.7s0.4,0.4,0.7,0.5s0.6,0.2,0.9,0.2
	c0.3,0,0.5,0,0.8-0.1s0.5-0.2,0.7-0.4s0.4-0.4,0.6-0.6l1,0.7c-0.3,0.4-0.6,0.6-0.9,0.9c-0.3,0.2-0.7,0.4-1.1,0.5
	C65,118,64.6,118.1,64.2,118.1z M63.1,114.5c0.3,0,0.6,0,0.9,0s0.6-0.1,0.8-0.2c0.3-0.1,0.5-0.2,0.6-0.3c0.2-0.1,0.2-0.3,0.2-0.5
	s-0.1-0.3-0.2-0.5s-0.3-0.3-0.5-0.4s-0.5-0.1-0.7-0.1c-0.4,0-0.8,0.1-1.1,0.3c-0.3,0.2-0.6,0.4-0.8,0.7c-0.2,0.3-0.3,0.6-0.3,1
	c0.1,0,0.3,0,0.4,0C62.7,114.5,62.9,114.5,63.1,114.5z M68.6,118v-6.6H70v1.4c0.1-0.3,0.3-0.5,0.5-0.7s0.5-0.4,0.8-0.5
	s0.6-0.2,0.9-0.2c0.5,0,0.9,0.1,1.3,0.3c0.4,0.2,0.7,0.5,0.9,0.9c0.2,0.4,0.3,0.9,0.3,1.5v3.9h-1.4v-3.6c0-0.6-0.2-1.1-0.5-1.4
	s-0.7-0.5-1.2-0.5c-0.3,0-0.6,0.1-0.9,0.3c-0.2,0.2-0.4,0.4-0.6,0.7c-0.1,0.3-0.2,0.7-0.2,1.1v3.5h-1.3V118z M79,118.1
	c-0.6,0-1.1-0.1-1.6-0.4s-0.8-0.7-1.1-1.2c-0.3-0.5-0.4-1.1-0.4-1.8c0-0.7,0.1-1.3,0.4-1.8s0.7-0.9,1.1-1.2c0.5-0.3,1-0.4,1.6-0.4
	c0.5,0,1,0.1,1.4,0.4s0.7,0.6,0.9,1.1v-3.7h1.4v8.9h-0.6c-0.2,0-0.4-0.1-0.6-0.2c-0.1-0.1-0.2-0.3-0.2-0.6v-0.7
	c-0.2,0.5-0.5,0.8-0.9,1.1C80,117.9,79.6,118.1,79,118.1z M79.3,116.9c0.3,0,0.7-0.1,1-0.3s0.6-0.4,0.7-0.7c0.2-0.3,0.3-0.7,0.3-1.2
	s-0.1-0.9-0.3-1.2c-0.2-0.3-0.4-0.6-0.7-0.7c-0.3-0.2-0.6-0.3-1-0.3c-0.3,0-0.7,0.1-1,0.3c-0.3,0.2-0.6,0.4-0.7,0.7
	c-0.2,0.3-0.3,0.7-0.3,1.2s0.1,0.9,0.3,1.2c0.2,0.3,0.4,0.6,0.7,0.7C78.7,116.8,79,116.9,79.3,116.9z M87.2,118.1
	c-0.6,0-1.1-0.1-1.6-0.4s-0.8-0.7-1.1-1.2c-0.3-0.5-0.4-1.1-0.4-1.8c0-0.7,0.1-1.3,0.4-1.8s0.7-0.9,1.1-1.2c0.5-0.3,1-0.4,1.6-0.4
	c0.5,0,1,0.1,1.4,0.4s0.7,0.6,0.9,1.1v-1.4h1.4v6.6h-0.6c-0.2,0-0.4-0.1-0.6-0.2c-0.1-0.1-0.2-0.3-0.2-0.6v-0.7
	c-0.2,0.5-0.5,0.8-0.9,1.1C88.2,117.9,87.7,118.1,87.2,118.1z M87.5,116.9c0.3,0,0.7-0.1,1-0.3s0.6-0.4,0.7-0.7
	c0.2-0.3,0.3-0.7,0.3-1.2s-0.1-0.9-0.3-1.2c-0.2-0.3-0.4-0.6-0.7-0.7c-0.3-0.2-0.6-0.3-1-0.3c-0.3,0-0.7,0.1-1,0.3
	c-0.3,0.2-0.6,0.4-0.7,0.7c-0.2,0.3-0.3,0.7-0.3,1.2s0.1,0.9,0.3,1.2c0.2,0.3,0.4,0.6,0.7,0.7C86.8,116.8,87.1,116.9,87.5,116.9z
	 M95.3,118.1c-0.6,0-1.1-0.1-1.6-0.4s-0.8-0.7-1.1-1.2c-0.3-0.5-0.4-1.1-0.4-1.8c0-0.7,0.1-1.3,0.4-1.8s0.7-0.9,1.1-1.2
	c0.5-0.3,1-0.4,1.6-0.4c0.5,0,1,0.1,1.4,0.4s0.7,0.6,0.9,1.1v-3.7H99v8.9h-0.6c-0.2,0-0.4-0.1-0.6-0.2c-0.1-0.1-0.2-0.3-0.2-0.6
	v-0.7c-0.2,0.5-0.5,0.8-0.9,1.1S95.8,118.1,95.3,118.1z M95.6,116.9c0.3,0,0.7-0.1,1-0.3c0.3-0.2,0.6-0.4,0.7-0.7
	c0.2-0.3,0.3-0.7,0.3-1.2s-0.1-0.9-0.3-1.2c-0.2-0.3-0.4-0.6-0.7-0.7c-0.3-0.2-0.6-0.3-1-0.3c-0.3,0-0.7,0.1-1,0.3
	c-0.3,0.2-0.6,0.4-0.7,0.7c-0.2,0.3-0.3,0.7-0.3,1.2s0.1,0.9,0.3,1.2c0.2,0.3,0.4,0.6,0.7,0.7C94.9,116.8,95.3,116.9,95.6,116.9z
	 M103.4,118.1c-0.6,0-1.1-0.1-1.6-0.4s-0.8-0.7-1.1-1.2c-0.3-0.5-0.4-1.1-0.4-1.8c0-0.7,0.1-1.3,0.4-1.8s0.7-0.9,1.1-1.2
	c0.5-0.3,1-0.4,1.6-0.4c0.5,0,1,0.1,1.4,0.4s0.7,0.6,0.9,1.1v-1.4h1.4v6.6h-0.6c-0.2,0-0.4-0.1-0.6-0.2c-0.1-0.1-0.2-0.3-0.2-0.6
	v-0.7c-0.2,0.5-0.5,0.8-0.9,1.1C104.4,117.9,104,118.1,103.4,118.1z M103.7,116.9c0.3,0,0.7-0.1,1-0.3s0.6-0.4,0.7-0.7
	c0.2-0.3,0.3-0.7,0.3-1.2s-0.1-0.9-0.3-1.2c-0.2-0.3-0.4-0.6-0.7-0.7c-0.3-0.2-0.6-0.3-1-0.3c-0.3,0-0.7,0.1-1,0.3
	c-0.3,0.2-0.6,0.4-0.7,0.7c-0.2,0.3-0.3,0.7-0.3,1.2s0.1,0.9,0.3,1.2c0.2,0.3,0.4,0.6,0.7,0.7C103.1,116.8,103.4,116.9,103.7,116.9z
	"/>
</svg>
